<?xml version="1.0" standalone="no"?>
<!DOCTYPE svg PUBLIC "-//W3C//DTD SVG 20010904//EN"
 "http://www.w3.org/TR/2001/REC-SVG-20010904/DTD/svg10.dtd">
<svg version="1.0" xmlns="http://www.w3.org/2000/svg"
 width="966.000000pt" height="966.000000pt" viewBox="0 0 966.000000 966.000000"
 preserveAspectRatio="xMidYMid meet">

<g transform="translate(0.000000,966.000000) scale(0.100000,-0.100000)"
fill="#000000" stroke="none">
<path d="M475 9626 c-129 -42 -230 -105 -310 -195 -35 -40 -105 -156 -105
-176 0 -8 -4 -16 -8 -19 -5 -3 -17 -38 -26 -78 -15 -65 -17 -127 -14 -548 3
-468 4 -476 27 -540 73 -204 231 -361 426 -423 69 -22 81 -22 570 -22 l500 0
65 24 c208 77 346 217 411 420 l30 93 -1 474 0 474 -26 78 c-35 103 -63 156
-118 223 -91 111 -214 187 -357 223 -56 14 -133 16 -530 16 -456 -1 -465 -1
-534 -24z m930 -266 c183 -26 315 -156 344 -340 15 -89 14 -704 0 -772 -37
-175 -173 -310 -340 -338 -84 -13 -685 -13 -769 1 -159 25 -276 124 -326 275
-14 41 -18 108 -21 396 -5 378 1 452 43 544 50 110 166 203 286 229 76 16 674
20 783 5z"/>
<path d="M737 9046 c-65 -32 -93 -60 -122 -122 -24 -52 -25 -58 -25 -294 0
-238 0 -242 26 -296 14 -30 40 -65 58 -79 68 -52 87 -55 351 -55 240 0 247 1
294 24 26 14 62 41 79 61 59 67 62 83 62 354 0 237 -1 248 -24 296 -13 28 -38
63 -56 78 -64 54 -82 57 -349 57 -238 -1 -248 -1 -294 -24z"/>
<path d="M2342 9213 l3 -438 288 -3 c219 -2 287 -5 288 -15 0 -6 0 -64 -1
-127 -1 -64 2 -124 6 -133 5 -15 24 -17 150 -17 l144 0 1 143 c0 78 1 207 2
287 l2 145 438 3 437 2 0 295 0 295 -150 0 -149 0 -3 -142 -3 -143 -285 0
-285 0 -3 143 -3 142 -439 0 -440 0 2 -437z"/>
<path d="M4382 9508 l3 -143 148 -3 147 -3 0 146 0 145 -150 0 -151 0 3 -142z"/>
<path d="M4972 9505 l3 -146 150 0 c83 0 214 0 293 0 l142 1 0 145 0 145 -295
0 -296 0 3 -145z"/>
<path d="M5842 9508 l3 -143 137 -3 c99 -2 139 -6 147 -16 8 -9 11 -97 9 -287
l-3 -274 -145 -5 -145 -5 -5 -290 -5 -290 -135 0 -135 0 -5 290 -5 290 -147 3
-148 3 0 -296 0 -295 145 0 145 0 0 -145 0 -145 -145 0 -145 0 0 -145 0 -146
-142 3 -143 3 -2 140 -1 140 -144 5 -143 5 0 140 0 140 142 3 142 3 3 140 c2
95 -1 144 -8 150 -7 5 -131 8 -295 7 l-284 -3 -5 -145 -5 -145 -142 -3 -143
-3 0 -289 0 -290 -140 0 -140 0 0 290 0 290 -150 0 -150 0 -2 -287 -3 -288
-140 0 -140 0 -2 145 c-1 80 -2 209 -2 288 l-1 142 -150 0 -151 0 1 -277 c0
-153 0 -284 0 -290 0 -10 -35 -13 -140 -13 l-140 0 0 290 0 290 -150 0 -150 0
2 -582 3 -583 143 -3 142 -3 0 -140 c0 -102 3 -141 13 -144 6 -3 138 -6 292
-8 l280 -2 3 -583 2 -583 146 3 147 3 -1 424 c-1 293 2 429 10 438 8 10 47 13
149 13 l139 0 0 435 0 435 145 0 145 0 0 145 c0 90 4 145 10 145 6 1 67 1 138
1 l127 0 2 -123 c4 -185 -12 -167 156 -170 l142 -3 0 -135 0 -135 -145 -5
-145 -5 0 -145 0 -145 140 -3 c96 -2 142 -6 147 -15 4 -7 8 -72 8 -144 l0
-132 143 -3 142 -3 5 -144 5 -143 285 -2 285 -1 3 -142 3 -143 -146 0 -145 0
0 -290 0 -290 -145 0 -145 0 1 288 1 287 -146 3 -146 3 -2 -288 -3 -288 -142
-3 -143 -3 0 436 0 435 -295 0 -295 0 -2 -582 -3 -583 -120 -3 c-180 -4 -166
-16 -164 143 0 73 -2 138 -6 144 -4 8 -141 11 -436 11 l-429 0 0 140 0 140
144 0 145 0 3 153 c2 83 2 216 0 295 l-3 142 -144 0 -145 0 0 145 0 145 -284
0 c-192 0 -287 3 -291 11 -4 6 -6 70 -6 143 2 115 0 134 -14 140 -9 3 -77 6
-151 6 l-135 0 3 138 3 137 145 5 145 5 0 145 0 145 -148 3 -147 3 0 -146 0
-145 -145 0 -144 0 -3 143 -3 142 -438 3 -438 2 3 -147 3 -148 288 -3 287 -2
0 -140 c0 -103 3 -142 12 -145 7 -3 139 -6 293 -8 l280 -2 0 -140 0 -140 -292
-3 -293 -2 0 -145 0 -145 -140 0 -140 0 0 289 c0 254 -2 290 -16 295 -9 3
-141 6 -295 6 l-280 0 2 134 c0 74 -2 139 -6 145 -4 7 -57 11 -146 11 l-139 0
0 -150 0 -149 143 -3 142 -3 3 -432 2 -433 -145 0 -145 0 0 -150 0 -150 145 0
144 0 3 143 3 142 142 3 142 3 3 -143 3 -143 143 -3 142 -3 -2 -287 -3 -287
-265 -3 c-146 -1 -275 0 -288 3 -23 6 -23 8 -21 140 0 73 -2 138 -6 144 -4 7
-57 11 -146 11 l-139 0 0 -150 0 -149 143 -3 142 -3 0 -140 0 -140 -145 -5
c-80 -3 -144 -8 -142 -12 1 -5 2 -71 2 -148 l0 -140 440 0 440 0 0 145 c0 142
0 145 22 150 13 2 273 4 578 2 l555 -2 3 -142 3 -143 -146 0 -145 0 0 -145 0
-145 -293 -2 -292 -3 -3 -142 -3 -143 -139 0 -139 0 -3 143 -3 142 -147 3
-148 3 0 -146 0 -145 -145 0 -146 0 2 143 1 142 -146 3 -146 3 0 -150 0 -150
143 -3 142 -3 0 -140 0 -140 -142 -3 -143 -3 0 -584 0 -585 145 0 145 0 1 138
c0 75 0 330 0 567 -1 236 2 438 5 447 5 16 20 18 150 18 l144 0 0 145 0 145
140 0 139 0 3 -142 3 -143 147 -3 147 -3 3 143 3 143 285 0 285 0 0 -140 0
-140 -143 -5 -143 -5 -2 -285 -2 -285 -148 -3 -148 -3 3 -147 3 -147 290 -5
290 -5 3 -142 3 -143 289 0 289 0 3 -142 3 -143 142 -3 142 -3 3 -142 3 -142
135 -3 c74 -1 139 -7 143 -11 5 -5 8 -67 8 -138 -2 -100 1 -133 12 -141 10 -9
94 -12 283 -12 148 1 275 1 282 0 9 0 12 -35 12 -140 l0 -140 -292 -2 -293 -3
-2 -285 -2 -285 -141 -3 -140 -3 0 436 0 435 -150 0 -150 0 2 -437 3 -438 142
-3 142 -3 3 -142 3 -142 143 -3 c126 -2 142 -4 143 -20 0 -9 0 -72 -1 -139 -1
-77 3 -124 10 -128 6 -3 205 -6 443 -6 l432 0 5 143 5 143 138 3 137 3 0 -138
c0 -76 4 -142 8 -148 4 -6 114 -10 292 -10 l285 0 5 145 5 145 140 0 140 0 5
-143 5 -143 145 0 145 0 5 143 5 143 143 3 142 3 -2 437 -3 437 -147 3 -148 3
0 -146 0 -145 -145 0 -146 0 2 142 1 143 -146 3 -145 3 -3 -143 -3 -143 -142
-3 -143 -3 0 286 c0 221 3 285 13 286 6 0 72 0 145 -1 l132 -1 0 150 0 151
-432 2 -433 3 0 140 0 140 143 3 143 3 -3 147 -3 147 -142 3 -142 3 -3 142 -3
142 -147 3 -148 3 0 -151 0 -150 145 0 146 0 -3 -142 -3 -143 -265 -3 c-146
-1 -275 0 -287 3 -22 5 -23 10 -25 148 l-3 142 -143 3 -143 3 3 137 3 137 143
3 142 3 0 149 0 150 -145 0 -145 0 0 140 c0 137 0 140 23 145 12 3 141 4 287
3 l265 -3 5 -145 5 -145 285 -2 285 -2 5 -143 5 -143 143 -3 142 -3 0 -285 c0
-218 3 -286 13 -289 6 -3 138 -6 292 -8 l280 -2 5 -290 5 -290 438 -2 437 -2
0 143 c0 122 2 145 16 150 9 3 74 6 145 6 l129 0 0 143 c1 78 2 273 3 432 l2
290 140 0 140 0 3 -142 3 -143 145 0 145 0 -3 -142 -3 -143 -142 -3 -143 -3 0
-144 0 -144 143 -3 142 -3 3 -142 3 -143 -289 0 c-159 0 -291 -2 -293 -4 -2
-2 -3 -70 -1 -150 l3 -146 290 0 289 0 0 -285 0 -285 -145 0 -144 0 -3 143 -3
142 -142 3 -143 3 0 -150 0 -150 143 -3 142 -3 3 -142 3 -142 142 -3 142 -3 5
-143 5 -143 290 0 290 0 5 143 5 143 295 2 c162 1 359 2 438 2 l142 1 0 144
c0 122 -2 145 -16 150 -9 3 -76 6 -150 6 l-133 0 -3 143 -3 142 -143 3 -143 3
3 137 3 137 287 3 287 2 3 -142 3 -143 293 -3 293 -2 -3 147 -3 148 -143 3
-142 3 2 287 3 287 135 0 135 0 2 -125 c4 -189 -11 -172 151 -169 l137 2 5
-289 c3 -159 7 -290 8 -291 1 -2 67 -3 147 -3 l144 0 3 143 3 142 143 5 143 5
0 290 0 290 -143 5 -143 5 0 140 0 140 143 3 142 3 1 137 c0 75 1 207 0 292
l0 155 -145 3 -145 3 0 276 c0 184 3 281 11 290 8 10 47 13 147 13 l136 0 -2
142 -2 143 -123 2 c-186 4 -169 -11 -166 151 l3 137 143 5 143 5 1 145 0 145
-146 3 -147 3 3 137 3 137 143 5 143 5 0 432 c0 238 -2 437 -6 443 -4 6 -61
10 -146 10 l-140 0 3 138 3 137 143 5 143 5 0 290 0 290 -288 5 -288 5 0 140
0 140 142 3 142 3 3 142 3 142 143 3 142 3 1 137 c0 75 1 207 0 292 l0 155
-438 0 -438 0 0 -290 0 -290 143 -3 142 -3 0 -144 0 -145 -290 0 -290 0 0
-145 0 -145 -145 0 -146 0 3 -147 3 -148 145 0 145 0 3 142 c2 138 3 143 25
148 12 3 139 4 282 3 l260 -3 2 -125 c4 -187 -12 -169 156 -172 l142 -3 0
-135 0 -135 -438 -3 -438 -2 3 -148 3 -147 142 -3 142 -3 3 -142 3 -142 143
-3 142 -3 0 -289 0 -290 -145 0 -145 0 0 -145 0 -145 -140 0 -139 0 -3 143 -3
142 -290 5 -290 5 -3 129 c-2 90 1 133 10 143 9 12 39 14 152 13 78 -1 205 -1
284 -1 l142 1 0 145 0 145 -139 0 c-89 0 -142 4 -146 11 -4 6 -6 70 -6 143 2
115 0 134 -14 140 -9 3 -77 6 -152 6 l-135 0 2 148 c1 81 1 211 1 290 l-1 142
-145 0 -145 0 3 433 2 432 140 0 140 0 3 -142 3 -143 149 0 150 0 0 138 c0 94
-4 142 -12 150 -8 8 -56 12 -150 12 l-139 0 3 138 3 137 145 5 145 5 0 145 0
145 -582 3 -583 2 0 140 c0 105 3 140 13 140 6 1 71 2 142 3 l130 2 3 293 2
292 -572 0 c-315 0 -579 4 -585 8 -10 6 -12 74 -10 288 l2 279 140 0 140 0 3
-142 3 -143 439 0 440 0 0 585 0 585 -295 0 -294 0 -3 -142 -3 -143 -285 0
-285 0 -3 143 -3 142 -150 0 -150 0 3 -142z m1163 -293 l0 -140 -137 -3 c-107
-2 -138 0 -139 10 -2 59 3 263 7 270 3 5 65 7 137 6 l132 -3 0 -140z m-870
-1047 c3 -13 4 -77 3 -143 l-3 -120 -140 0 -140 0 -3 129 c-1 72 0 136 2 143
4 10 39 13 140 13 132 0 136 -1 141 -22z m-1460 -290 c3 -13 4 -77 3 -143 l-3
-120 -140 0 -140 0 -3 134 c-2 101 1 136 10 143 7 4 70 8 140 8 124 0 128 -1
133 -22z m1163 -126 l3 -143 -138 3 -138 3 -3 129 c-1 72 0 136 2 143 4 11 35
13 138 11 l133 -3 3 -143z m587 126 c3 -13 4 -77 3 -143 l-3 -120 -140 0 -140
0 -3 134 c-2 101 1 136 10 143 7 4 70 8 140 8 124 0 128 -1 133 -22z m580
-123 l0 -140 -129 -3 c-72 -1 -134 2 -139 7 -9 9 -10 258 -1 273 3 5 65 7 137
6 l132 -3 0 -140z m-2037 -299 l-3 -131 -140 0 -140 0 0 135 0 135 130 5 c72
3 136 1 143 -4 9 -7 12 -42 10 -140z m1744 136 c5 -5 7 -67 6 -138 l-3 -129
-140 0 -140 0 -3 130 c-2 101 0 132 11 140 17 12 256 10 269 -3z m-3207 -422
l0 -135 -140 0 -140 0 -3 124 c-1 69 0 131 2 138 4 11 36 13 143 11 l138 -3 0
-135z m2045 -150 l0 -290 153 0 c83 -1 214 -1 290 0 l138 1 -3 -143 -3 -143
-142 -3 -143 -3 0 -145 0 -145 -137 3 -138 3 -3 142 -3 142 -142 3 -142 3 -3
433 -2 432 140 0 140 0 0 -290z m875 150 l0 -135 -142 -3 -143 -3 0 134 c0 74
3 137 7 141 4 3 68 5 142 4 l136 -3 0 -135z m-1457 -292 l3 -138 -146 0 -145
0 0 133 c0 74 3 137 7 141 4 3 68 5 142 4 l136 -3 3 -137z m1750 -5 l3 -142
142 -3 142 -3 3 -142 3 -142 142 -3 142 -3 0 -140 0 -140 -142 -3 -142 -3 -3
-142 -3 -142 -285 0 -285 0 -3 129 c-2 88 1 133 9 143 10 11 41 14 148 12
l136 -1 3 143 c2 107 -1 144 -10 151 -7 4 -75 8 -150 8 l-137 0 0 270 c0 149
3 278 6 286 4 12 29 14 142 12 l136 -3 3 -142z m582 7 l0 -140 -140 0 -140 0
0 133 c0 74 3 137 7 140 3 4 66 7 140 7 l133 0 0 -140z m2045 -5 l0 -140 -120
-3 c-179 -4 -165 -16 -165 142 0 73 3 136 7 140 4 3 68 5 142 4 l136 -3 0
-140z m-7300 -580 l0 -140 -120 -3 c-179 -4 -165 -16 -165 136 0 88 4 132 12
140 9 9 50 12 143 10 l130 -3 0 -140z m-1167 -292 l3 -143 -141 0 -140 0 0
139 c0 102 3 141 13 145 6 2 68 4 137 3 l125 -2 3 -142z m870 135 c10 -8 13
-42 12 -132 -1 -67 -1 -129 -1 -139 1 -16 13 -17 149 -15 l147 3 2 139 c1 103
5 141 15 147 7 5 135 7 283 6 l270 -2 3 -287 2 -288 -436 -2 -437 -3 -1 -140
-1 -140 -142 -3 -143 -3 0 146 0 145 -145 0 -145 0 0 284 c0 218 3 285 13 289
27 11 541 6 555 -5z m4677 -573 l0 -280 -145 -5 -145 -5 -3 -143 c-2 -110 0
-144 10 -147 8 -3 139 -6 293 -8 l280 -2 5 -290 5 -290 293 -3 292 -2 0 145
c0 171 -14 157 160 153 l115 -3 5 -145 5 -145 140 -3 c96 -2 142 -6 147 -15 5
-7 8 -66 7 -132 0 -66 0 -126 0 -132 1 -9 40 -13 144 -15 l142 -3 3 -137 3
-137 -147 -3 -147 -3 -1 -140 -1 -140 -142 -3 -142 -3 -3 143 -3 143 -142 3
-142 3 -3 142 -3 142 -580 5 -580 5 -2 140 c-1 77 -2 206 -2 288 l-1 147 -295
0 -296 0 3 -147 3 -148 143 -3 142 -3 0 -139 0 -140 -145 0 -145 0 0 -290 0
-290 -140 0 -139 0 -3 143 -3 142 -147 3 -148 3 -2 -293 -3 -293 -265 -3
c-146 -1 -275 0 -288 3 -22 5 -23 7 -20 143 l3 137 143 3 142 3 1 142 c0 78 1
207 2 287 l2 145 293 3 293 2 -3 148 -3 147 -145 5 -145 5 -2 140 -1 140 -124
2 c-185 4 -168 -10 -168 142 0 100 3 131 15 141 10 8 57 11 152 10 76 -1 202
-1 281 -1 l142 1 0 145 0 145 145 0 144 0 3 143 3 142 143 3 142 3 0 138 c0
76 3 141 7 144 4 4 133 6 287 5 l281 -3 0 -280z m1165 145 l0 -140 -140 0
-140 0 0 133 c0 74 3 137 7 140 3 4 66 7 140 7 l133 0 0 -140z m-290 -290 l0
-140 -145 0 -145 0 0 -145 0 -146 -141 3 -140 3 1 274 c0 151 3 278 6 282 3 5
131 9 285 9 l279 0 0 -140z m-5255 -295 l0 -140 -120 -3 c-178 -4 -165 -15
-165 132 0 69 3 132 6 140 6 14 25 16 143 14 l136 -3 0 -140z m5550 123 c3
-13 4 -77 3 -143 l-3 -120 -140 0 -140 0 -3 129 c-1 72 0 136 2 143 4 10 39
13 140 13 132 0 136 -1 141 -22z m-4090 -291 c3 -12 4 -141 3 -287 l-3 -265
-285 0 -285 0 -3 143 -3 142 -149 0 -150 0 0 -145 0 -146 -137 3 -138 3 -3
275 c-1 151 0 280 2 287 4 10 133 12 575 12 l571 0 5 -22z m873 -120 l-3 -142
-280 0 -280 0 -3 129 c-1 72 0 136 2 143 4 10 67 12 286 12 l281 0 -3 -142z
m2917 -2 l0 -140 -135 0 -135 0 -3 129 c-1 72 0 136 2 143 4 11 35 13 138 11
l133 -3 0 -140z m590 0 l0 -140 -140 0 -140 0 -3 129 c-1 72 0 136 2 143 4 11
36 13 143 11 l138 -3 0 -140z m-3216 -159 c8 -9 11 -56 9 -142 l-3 -129 -140
0 -140 0 -3 134 c-2 101 1 136 10 143 7 4 68 8 134 8 92 0 124 -3 133 -14z
m-289 -571 l0 -285 -140 0 -140 0 0 278 c0 153 3 282 7 285 3 4 66 7 140 7
l133 0 0 -285z m-1458 -147 l3 -143 438 -3 437 -2 0 -140 0 -140 -437 -2 -438
-3 -3 -148 -3 -147 -282 2 -282 3 0 140 0 140 143 3 143 3 -3 147 -3 147 -437
3 -438 2 0 133 c0 74 3 137 7 140 3 4 264 7 579 7 l573 0 3 -142z m6423 120
c3 -13 4 -75 3 -138 l-3 -115 -142 -3 -143 -3 0 134 c0 74 3 137 7 140 3 4 66
7 139 7 130 0 134 -1 139 -22z m-2920 -558 l0 -285 -145 -5 -145 -5 -3 -287
-2 -288 -140 0 -140 0 0 145 0 145 -437 2 -438 3 -3 129 c-2 87 1 133 9 142
10 12 63 14 303 13 160 0 353 0 429 0 l137 1 0 283 c0 156 3 287 7 290 4 4
133 6 287 5 l281 -3 0 -285z m583 -438 l2 -723 -140 3 -141 3 -2 285 -2 285
-145 5 -145 5 -3 129 c-2 86 1 133 9 142 9 11 44 14 150 14 l139 0 0 283 c0
156 3 287 7 291 4 3 66 5 137 4 l131 -3 3 -723z m2042 293 l0 -436 -137 3
-138 3 -3 420 c-1 231 0 426 3 432 3 10 41 13 140 13 l135 0 0 -435z m-7005 0
l0 -140 -140 0 -140 0 -3 120 c-4 180 -17 166 146 163 l137 -3 0 -140z m6420
0 l0 -140 -285 0 -285 0 -3 120 c-1 66 0 130 3 142 l5 23 283 -3 282 -2 0
-140z m-6127 -438 l2 -287 -287 2 -288 3 0 135 0 135 145 5 145 5 2 133 c1 73
4 140 7 148 5 12 29 14 138 12 l133 -3 3 -288z m2040 145 l3 -143 -138 3 -138
3 -3 134 c-2 101 1 137 10 143 7 4 69 7 138 6 l125 -3 3 -143z m3503 130 c0
-9 0 -69 -1 -132 -1 -64 2 -124 6 -133 6 -16 29 -18 283 -17 152 0 282 0 289
0 9 0 12 -35 12 -140 l0 -140 -577 2 -578 3 -3 279 c-2 217 1 281 10 287 7 5
136 8 286 8 250 0 272 -1 273 -17z m-5251 -712 l0 -140 -140 0 -140 0 0 140 0
140 140 0 140 0 0 -140z m2335 0 l0 -135 -140 0 -140 0 -3 124 c-1 69 0 131 2
138 4 11 36 13 143 11 l138 -3 0 -135z m585 -145 l0 -285 -140 0 -140 0 0 285
0 285 140 0 140 0 0 -285z m3798 -2 l2 -283 -145 0 -144 0 -3 143 -3 142 -142
3 -143 3 0 139 0 140 288 -2 287 -3 3 -282z m-1173 -438 l0 -430 -430 0 -430
0 -3 420 c-1 231 0 426 3 433 3 10 95 12 432 10 l428 -3 0 -430z m585 295 l0
-140 -140 0 -140 0 0 133 c0 74 3 137 7 140 3 4 66 7 140 7 l133 0 0 -140z
m-4672 -879 l3 -141 -141 0 -140 0 0 139 c0 84 4 141 10 143 5 2 67 2 137 1
l128 -1 3 -141z m2920 0 l3 -141 -141 0 -140 0 0 139 c0 85 4 141 10 143 6 2
68 2 138 2 l127 -2 3 -141z m-2918 -581 l0 -140 -140 0 -140 0 0 133 c0 74 3
137 7 140 3 4 66 7 140 7 l133 0 0 -140z m875 0 l0 -135 -142 -3 -143 -3 0
134 c0 74 3 137 7 141 4 3 68 5 142 4 l136 -3 0 -135z m-1750 -295 l0 -140
-140 0 -140 0 -3 129 c-1 72 0 136 2 143 4 11 36 13 143 11 l138 -3 0 -140z
m580 0 l0 -140 -120 -3 c-178 -4 -165 -15 -165 132 0 69 3 132 6 140 6 14 25
16 143 14 l136 -3 0 -140z m880 0 l0 -140 -140 0 -140 0 -3 129 c-1 72 0 136
2 143 4 11 36 13 143 11 l138 -3 0 -140z m2623 3 l-3 -143 -135 0 -135 0 -3
129 c-1 72 0 136 2 143 4 10 39 13 141 13 l136 0 -3 -142z"/>
<path d="M7594 2057 c-2 -7 -3 -74 -2 -148 l3 -134 148 -3 148 -3 -3 148 -3
148 -143 3 c-111 2 -144 0 -148 -11z"/>
<path d="M8073 9630 c-221 -65 -376 -217 -448 -439 l-25 -76 0 -469 c0 -515 1
-526 62 -654 79 -163 215 -284 387 -344 66 -23 70 -23 571 -23 461 0 509 2
555 18 214 77 348 209 427 422 22 59 23 72 26 540 3 426 1 487 -14 545 -64
247 -241 423 -485 484 -56 14 -133 16 -530 15 -420 0 -470 -2 -526 -19z m922
-270 c186 -27 318 -158 345 -345 13 -95 13 -685 -1 -761 -32 -174 -172 -316
-339 -343 -87 -14 -681 -14 -773 0 -177 27 -309 160 -337 339 -13 87 -13 690
1 765 32 171 157 304 321 340 76 16 674 20 783 5z"/>
<path d="M8327 9046 c-64 -32 -92 -59 -123 -122 l-25 -51 3 -255 3 -255 30
-49 c19 -30 49 -60 79 -79 l49 -30 254 -3 c230 -3 257 -1 295 16 62 27 105 68
133 123 25 47 25 53 25 296 0 218 -3 253 -19 288 -27 59 -65 100 -116 124 -42
20 -61 21 -292 21 -240 -1 -250 -1 -296 -24z"/>
<path d="M4387 9063 c-9 -8 -9 -256 -1 -277 5 -14 41 -16 295 -16 l288 0 3
146 c2 80 1 148 -1 150 -7 7 -577 4 -584 -3z"/>
<path d="M3510 8630 l0 -150 150 0 151 0 -3 148 -3 147 -147 3 -148 3 0 -151z"/>
<path d="M592 2648 l3 -293 148 -3 147 -3 -2 293 -3 293 -148 3 -147 3 2 -293z"/>
<path d="M525 2053 c-236 -57 -412 -217 -488 -442 -22 -65 -22 -76 -22 -561 0
-492 0 -495 23 -565 73 -215 246 -380 459 -435 78 -20 101 -21 565 -18 474 4
484 4 540 26 216 86 347 223 412 431 l26 83 0 473 0 473 -26 79 c-49 147 -107
232 -214 318 -70 56 -121 85 -209 118 -54 20 -78 21 -551 23 -272 1 -504 0
-515 -3z m888 -284 c92 -14 145 -40 213 -102 68 -62 108 -138 123 -234 15 -95
15 -704 0 -775 -36 -173 -173 -309 -340 -337 -97 -16 -684 -14 -781 3 -156 28
-271 129 -315 278 -21 69 -31 714 -13 816 30 175 156 312 320 348 73 16 693
18 793 3z"/>
<path d="M745 1461 c-61 -28 -102 -67 -129 -126 -26 -53 -26 -57 -26 -293 0
-197 3 -246 16 -278 26 -64 61 -101 118 -128 54 -26 57 -26 298 -26 215 0 248
3 284 19 58 26 109 74 133 126 20 42 21 61 21 292 0 239 -1 250 -24 298 -13
28 -38 63 -56 78 -64 54 -82 57 -349 57 -216 0 -251 -3 -286 -19z"/>
<path d="M8477 603 c-4 -3 -7 -71 -7 -150 l0 -143 148 -1 c81 0 211 0 290 1
l142 1 0 -140 c0 -82 4 -142 10 -146 5 -3 73 -7 150 -8 l140 -2 0 147 0 147
-142 3 -143 3 -3 140 c-2 96 -6 142 -15 147 -15 9 -561 11 -570 1z"/>
<path d="M5840 172 c0 -76 4 -142 9 -147 6 -6 71 -9 150 -7 l141 3 0 145 0
144 -150 0 -150 0 0 -138z"/>
</g>
</svg>
