<?xml version="1.0" standalone="no"?>
<!DOCTYPE svg PUBLIC "-//W3C//DTD SVG 20010904//EN"
 "http://www.w3.org/TR/2001/REC-SVG-20010904/DTD/svg10.dtd">
<svg version="1.0" xmlns="http://www.w3.org/2000/svg"
 width="964.000000pt" height="964.000000pt" viewBox="0 0 964.000000 964.000000"
 preserveAspectRatio="xMidYMid meet">

<g transform="translate(0.000000,964.000000) scale(0.100000,-0.100000)"
fill="#000000" stroke="none">
<path d="M468 9604 c-211 -68 -355 -207 -430 -418 -22 -59 -23 -75 -26 -536
-3 -422 -1 -483 14 -550 50 -214 221 -402 428 -469 102 -33 214 -41 567 -41
328 0 534 11 554 31 5 5 15 9 23 9 25 0 143 63 200 107 102 79 171 181 219
323 l28 85 0 465 c0 425 -2 470 -19 525 -77 251 -239 414 -472 475 -73 19
-106 20 -543 20 l-466 -1 -77 -25z m937 -264 c183 -26 315 -156 344 -340 15
-89 14 -704 0 -772 -37 -175 -173 -310 -340 -338 -84 -13 -685 -13 -769 1
-159 25 -276 124 -326 275 -14 41 -18 108 -21 396 -5 378 1 452 43 544 50 110
166 203 286 229 76 16 674 20 783 5z"/>
<path d="M737 9026 c-65 -32 -93 -60 -122 -122 -24 -52 -25 -58 -25 -294 0
-238 0 -242 26 -296 14 -30 40 -65 58 -79 68 -52 87 -55 351 -55 240 0 247 1
294 24 26 14 62 41 79 61 59 67 62 83 62 354 0 237 -1 248 -24 296 -13 28 -38
63 -56 78 -64 54 -82 57 -349 57 -238 -1 -248 -1 -294 -24z"/>
<path d="M8115 9623 c-93 -21 -209 -77 -277 -133 -107 -89 -163 -172 -215
-317 l-27 -78 -1 -460 c0 -426 1 -466 20 -535 31 -122 88 -222 169 -304 119
-118 234 -174 406 -195 103 -13 732 -14 853 -1 258 27 466 188 554 429 l27 76
4 480 c3 426 1 487 -14 545 -64 247 -241 423 -485 484 -56 14 -132 16 -530 15
-255 -1 -473 -3 -484 -6z m880 -283 c186 -27 318 -158 345 -345 13 -95 13
-685 -1 -761 -32 -174 -172 -316 -339 -343 -87 -14 -681 -14 -773 0 -177 27
-309 160 -337 339 -13 87 -13 690 1 765 32 171 157 304 321 340 76 16 674 20
783 5z"/>
<path d="M8327 9026 c-64 -32 -92 -59 -123 -122 l-25 -51 3 -255 3 -255 30
-49 c19 -30 49 -60 79 -79 l49 -30 254 -3 c230 -3 257 -1 295 16 62 27 105 68
133 123 25 47 25 53 25 296 0 218 -3 253 -19 288 -27 59 -65 100 -116 124 -42
20 -61 21 -292 21 -240 -1 -250 -1 -296 -24z"/>
<path d="M2453 9603 c-31 -6 -68 -46 -80 -87 -9 -30 -8 -42 10 -78 39 -76 48
-78 397 -78 335 0 350 2 393 62 36 48 20 130 -32 165 -24 16 -56 18 -346 19
-176 1 -330 0 -342 -3z"/>
<path d="M3894 9595 c-17 -9 -41 -34 -54 -57 -20 -35 -21 -45 -11 -78 12 -41
58 -86 97 -96 38 -10 75 5 111 42 27 29 33 43 33 80 0 89 -97 149 -176 109z"/>
<path d="M4485 9600 c-37 -15 -67 -57 -72 -102 -6 -58 26 -107 85 -128 40 -14
45 -13 79 5 50 28 76 66 76 112 0 49 -24 86 -68 107 -36 17 -69 19 -100 6z"/>
<path d="M5083 9603 c-33 -6 -79 -57 -86 -93 -11 -51 19 -109 67 -131 55 -25
333 -28 390 -4 69 29 95 109 56 173 -33 54 -68 62 -247 61 -87 -1 -168 -4
-180 -6z"/>
<path d="M5945 9600 c-11 -4 -31 -20 -45 -35 -20 -21 -25 -37 -25 -80 0 -63
26 -99 86 -117 100 -29 184 84 134 181 -24 47 -99 73 -150 51z"/>
<path d="M6835 9603 c-38 -10 -64 -35 -80 -77 -15 -39 -15 -45 1 -85 27 -69
64 -81 255 -81 178 0 217 10 249 63 25 41 25 83 0 125 -33 54 -68 62 -247 61
-87 -1 -167 -4 -178 -6z"/>
<path d="M2445 9306 c-97 -43 -102 -172 -8 -220 29 -14 108 -16 785 -16 729 0
754 1 785 20 86 52 81 170 -10 213 -32 15 -104 17 -779 17 -594 -1 -749 -3
-773 -14z"/>
<path d="M6253 9313 c-34 -7 -81 -59 -89 -98 -9 -48 21 -105 66 -127 29 -14
65 -17 200 -17 189 0 223 9 252 69 21 44 22 59 3 104 -27 63 -70 76 -255 74
-85 0 -165 -3 -177 -5z"/>
<path d="M7120 9313 c-28 -10 -69 -56 -80 -88 -22 -67 43 -155 114 -155 67 0
126 59 126 125 0 81 -86 145 -160 118z"/>
<path d="M2455 9018 c-43 -15 -70 -43 -83 -84 -16 -53 14 -118 64 -139 55 -23
651 -22 695 1 42 21 72 89 59 134 -13 45 -46 78 -89 90 -48 13 -607 12 -646
-2z"/>
<path d="M4484 9011 c-40 -18 -74 -67 -74 -105 0 -35 30 -86 62 -106 30 -18
50 -20 209 -20 166 0 178 1 209 23 18 12 39 39 48 60 13 34 13 42 -3 83 -27
72 -63 84 -255 84 -130 0 -162 -3 -196 -19z"/>
<path d="M6235 9011 c-43 -20 -59 -40 -69 -88 -10 -43 15 -98 56 -123 32 -19
49 -20 499 -20 l466 0 34 23 c84 57 77 166 -14 208 -39 17 -71 19 -487 19
-412 0 -448 -2 -485 -19z"/>
<path d="M3023 8720 c-42 -22 -73 -67 -73 -110 0 -36 31 -90 61 -105 72 -38
157 -3 180 75 10 32 9 44 -7 76 -36 72 -96 96 -161 64z"/>
<path d="M3614 8725 c-36 -16 -72 -57 -80 -91 -9 -34 14 -90 47 -119 23 -19
42 -25 76 -25 39 0 50 5 84 39 31 31 39 46 39 75 0 55 -25 95 -73 117 -49 22
-52 22 -93 4z"/>
<path d="M5368 8727 c-95 -43 -113 -152 -34 -212 58 -44 149 -27 181 35 34 66
9 140 -58 171 -48 21 -52 22 -89 6z"/>
<path d="M5944 8721 c-27 -12 -46 -30 -57 -54 -21 -43 -21 -67 -3 -112 17 -41
60 -65 117 -65 33 0 47 6 75 34 30 30 34 41 34 84 0 58 -24 95 -77 117 -43 18
-39 19 -89 -4z"/>
<path d="M6545 8728 c-43 -15 -74 -46 -86 -88 -15 -48 8 -102 53 -130 31 -19
50 -20 356 -20 355 0 367 2 397 60 37 71 6 148 -71 174 -40 13 -94 16 -333 15
-172 0 -298 -5 -316 -11z"/>
<path d="M4580 8439 c-54 -3 -104 -11 -117 -19 -68 -43 -62 -169 10 -206 36
-19 290 -28 364 -13 58 11 96 46 108 98 9 43 -22 102 -65 123 -41 19 -159 26
-300 17z"/>
<path d="M5342 8420 c-46 -28 -68 -82 -53 -131 32 -105 177 -123 227 -28 31
61 9 135 -50 163 -45 21 -84 20 -124 -4z"/>
<path d="M5933 8424 c-55 -27 -78 -105 -49 -163 22 -41 59 -61 112 -61 39 0
51 5 80 34 29 29 34 41 34 83 0 55 -17 86 -60 108 -37 19 -77 19 -117 -1z"/>
<path d="M2433 8134 c-20 -10 -40 -32 -53 -60 -18 -37 -20 -49 -11 -77 14 -41
46 -73 89 -88 42 -14 93 3 127 42 47 57 26 152 -41 184 -41 19 -71 19 -111 -1z"/>
<path d="M3025 8141 c-66 -29 -93 -118 -55 -179 40 -65 120 -76 180 -26 83 71
44 198 -66 210 -21 2 -48 0 -59 -5z"/>
<path d="M3605 8136 c-96 -42 -93 -177 5 -221 38 -17 45 -18 83 -4 79 27 109
113 64 180 -38 57 -90 72 -152 45z"/>
<path d="M4203 8143 c-58 -12 -95 -91 -74 -156 24 -72 68 -87 263 -87 163 0
200 8 236 55 39 49 25 137 -27 172 -22 15 -52 18 -201 20 -96 0 -185 -1 -197
-4z"/>
<path d="M5643 8134 c-20 -10 -40 -32 -54 -60 -19 -39 -20 -49 -8 -77 40 -102
147 -125 214 -46 47 57 27 151 -39 183 -42 20 -72 20 -113 0z"/>
<path d="M6230 8132 c-93 -46 -86 -177 11 -216 58 -23 907 -24 963 -1 97 41
99 181 4 220 -33 13 -106 15 -491 15 -410 0 -455 -2 -487 -18z"/>
<path d="M2450 7853 c-28 -10 -69 -56 -80 -88 -22 -68 45 -155 120 -155 30 0
75 25 99 56 69 87 -34 225 -139 187z"/>
<path d="M3025 7846 c-45 -20 -67 -50 -72 -98 -5 -52 11 -85 56 -115 74 -50
162 -11 185 80 10 43 -23 110 -67 130 -42 20 -62 21 -102 3z"/>
<path d="M3601 7842 c-35 -19 -71 -72 -71 -105 0 -59 66 -127 123 -127 64 0
127 62 127 125 0 43 -35 94 -75 111 -45 18 -63 18 -104 -4z"/>
<path d="M4195 7850 c-29 -11 -60 -50 -73 -88 -14 -40 5 -90 44 -121 56 -44
108 -39 161 14 27 27 33 41 33 75 0 92 -85 154 -165 120z"/>
<path d="M4773 7846 c-89 -40 -95 -165 -10 -216 65 -40 148 -10 176 63 38 100
-68 197 -166 153z"/>
<path d="M5364 7850 c-28 -11 -72 -65 -81 -98 -4 -18 1 -40 18 -71 19 -36 33
-49 65 -60 52 -18 88 -9 131 34 27 27 33 41 33 75 0 88 -88 152 -166 120z"/>
<path d="M5929 7837 c-39 -26 -59 -60 -59 -102 0 -42 20 -76 59 -102 41 -28
86 -29 125 -4 38 26 55 57 56 104 0 52 -22 91 -64 111 -46 22 -77 20 -117 -7z"/>
<path d="M6521 7842 c-35 -19 -71 -72 -71 -105 0 -61 64 -127 123 -127 64 0
127 62 127 125 0 43 -35 94 -75 111 -45 18 -63 18 -104 -4z"/>
<path d="M7120 7853 c-28 -10 -69 -56 -80 -88 -22 -68 45 -155 120 -155 30 0
75 25 99 56 69 87 -34 225 -139 187z"/>
<path d="M2454 7559 c-37 -10 -68 -43 -82 -87 -9 -27 -8 -40 8 -77 34 -79 -8
-75 844 -75 727 0 752 1 783 20 87 53 81 169 -10 211 -40 18 -76 19 -777 18
-404 0 -749 -5 -766 -10z"/>
<path d="M4483 7555 c-48 -21 -75 -70 -69 -125 5 -58 60 -110 115 -110 42 0
94 29 112 61 31 59 2 144 -58 173 -41 19 -58 20 -100 1z"/>
<path d="M5080 7559 c-37 -15 -68 -48 -80 -85 -9 -28 -8 -41 9 -79 34 -78 8
-75 694 -75 694 0 660 -4 697 88 11 28 10 39 -5 78 -14 37 -25 50 -59 65 -39
17 -75 19 -636 18 -371 0 -604 -4 -620 -10z"/>
<path d="M6809 7547 c-19 -12 -43 -39 -54 -59 -18 -35 -19 -40 -5 -80 19 -53
67 -88 123 -88 32 0 46 7 78 39 32 32 39 46 39 77 0 51 -32 102 -75 120 -47
19 -66 18 -106 -9z"/>
<path d="M705 7268 c-76 -26 -107 -94 -76 -164 33 -73 36 -74 401 -74 352 0
365 2 395 60 34 66 9 140 -58 171 -38 17 -68 19 -337 18 -178 0 -307 -5 -325
-11z"/>
<path d="M1870 7269 c-68 -27 -104 -100 -80 -159 42 -102 174 -108 225 -10 20
39 19 63 -5 109 -14 28 -31 43 -60 55 -46 18 -46 18 -80 5z"/>
<path d="M2442 7260 c-33 -15 -47 -29 -62 -64 -20 -44 -20 -44 -1 -89 33 -77
33 -77 404 -77 320 0 324 0 357 23 43 29 63 84 48 130 -15 45 -27 57 -73 78
-36 17 -71 19 -335 19 -271 0 -298 -2 -338 -20z"/>
<path d="M3614 7266 c-34 -15 -72 -58 -80 -92 -17 -67 51 -144 126 -144 36 0
48 6 81 39 31 31 39 46 39 75 0 55 -25 95 -73 117 -50 22 -53 22 -93 5z"/>
<path d="M4792 7267 c-75 -28 -106 -94 -78 -161 28 -67 58 -76 254 -76 193 0
218 6 252 63 24 39 25 66 3 111 -28 60 -65 71 -243 73 -104 1 -166 -2 -188
-10z"/>
<path d="M5650 7258 c-58 -30 -81 -83 -61 -148 21 -72 46 -80 254 -80 197 0
224 7 252 60 18 35 19 86 2 120 -6 14 -32 35 -57 48 -40 20 -59 22 -195 22
-136 0 -155 -2 -195 -22z"/>
<path d="M6545 7268 c-43 -15 -74 -46 -86 -88 -15 -48 8 -102 53 -130 32 -20
48 -20 793 -20 741 0 761 1 793 20 18 11 40 35 49 55 14 29 15 41 4 75 -14 49
-39 73 -90 88 -51 16 -1472 15 -1516 0z"/>
<path d="M8862 7260 c-66 -30 -88 -97 -55 -167 28 -61 44 -63 400 -63 299 0
320 1 350 20 92 55 71 183 -36 219 -23 7 -132 11 -325 10 -264 0 -295 -2 -334
-19z"/>
<path d="M1314 6982 c-43 -8 -83 -35 -98 -67 -20 -42 -20 -68 0 -111 28 -58
52 -64 247 -65 179 0 199 3 230 30 68 58 46 173 -37 201 -31 10 -301 19 -342
12z"/>
<path d="M2825 6980 c-100 -6 -127 -18 -150 -66 -19 -40 -19 -65 -1 -109 28
-67 23 -66 548 -65 519 0 499 -2 538 63 24 39 25 66 3 112 -30 63 -49 66 -473
68 -206 1 -415 0 -465 -3z"/>
<path d="M5745 6980 c-100 -6 -127 -18 -150 -66 -19 -40 -19 -65 -1 -109 27
-64 39 -66 395 -66 177 0 329 5 343 10 61 23 89 97 61 157 -32 68 -56 74 -324
77 -129 1 -274 0 -324 -3z"/>
<path d="M7495 6980 c-100 -6 -127 -19 -150 -66 -19 -40 -19 -65 -1 -109 25
-58 53 -66 249 -66 178 0 199 3 230 30 68 58 46 175 -37 200 -42 13 -180 18
-291 11z"/>
<path d="M105 6971 c-62 -27 -89 -103 -60 -165 45 -95 183 -86 225 14 16 39 1
96 -34 129 -27 25 -97 37 -131 22z"/>
<path d="M4473 6964 c-80 -40 -82 -168 -3 -209 99 -51 208 33 179 138 -20 72
-106 107 -176 71z"/>
<path d="M5064 6970 c-30 -12 -62 -56 -70 -95 -12 -66 49 -135 120 -135 50 1
81 17 107 56 25 39 24 84 -4 125 -36 53 -95 73 -153 49z"/>
<path d="M6820 6973 c-54 -20 -89 -92 -70 -148 43 -132 240 -103 240 35 0 81
-92 142 -170 113z"/>
<path d="M8847 6962 c-15 -9 -37 -36 -48 -58 -19 -40 -19 -44 -3 -83 22 -55
60 -81 119 -81 40 0 52 5 81 34 29 29 34 41 34 80 0 27 -7 58 -16 72 -35 52
-113 69 -167 36z"/>
<path d="M9445 6971 c-62 -27 -89 -103 -60 -165 21 -44 59 -66 116 -66 33 0
47 6 74 33 56 56 58 111 7 168 -21 24 -38 32 -72 35 -25 2 -54 0 -65 -5z"/>
<path d="M393 6674 c-60 -30 -82 -91 -57 -154 26 -66 53 -74 238 -78 183 -4
234 7 267 62 37 61 11 144 -56 172 -51 21 -348 20 -392 -2z"/>
<path d="M1854 6680 c-12 -4 -31 -20 -42 -35 -52 -66 -31 -153 44 -187 114
-50 220 71 151 173 -36 53 -95 73 -153 49z"/>
<path d="M3311 6672 c-20 -10 -43 -33 -54 -55 -17 -34 -18 -44 -8 -78 25 -84
66 -99 271 -99 174 0 219 14 245 76 20 48 19 72 -5 112 -33 53 -68 62 -252 62
-135 0 -169 -3 -197 -18z"/>
<path d="M4770 6673 c-69 -36 -87 -131 -35 -187 34 -36 84 -46 245 -46 131 0
150 2 190 23 34 17 47 31 59 64 13 36 13 46 0 78 -27 73 -47 80 -247 83 -154
2 -182 0 -212 -15z"/>
<path d="M6235 6680 c-44 -18 -70 -59 -70 -110 0 -119 133 -169 210 -79 34 41
40 73 23 117 -24 64 -101 98 -163 72z"/>
<path d="M7123 6683 c-31 -6 -68 -46 -80 -87 -9 -30 -8 -42 10 -78 33 -64 58
-72 231 -76 164 -4 221 6 256 43 27 28 37 95 20 134 -24 60 -46 66 -240 68
-96 0 -185 -1 -197 -4z"/>
<path d="M7984 6680 c-58 -23 -87 -105 -58 -165 42 -89 174 -92 220 -4 51 99
-57 212 -162 169z"/>
<path d="M9155 6680 c-67 -27 -94 -119 -53 -180 58 -86 185 -65 218 35 30 92
-73 183 -165 145z"/>
<path d="M413 6393 c-33 -6 -79 -57 -87 -94 -10 -50 24 -114 69 -134 53 -21
337 -22 389 0 68 29 95 109 57 171 -34 55 -70 64 -248 63 -87 -1 -168 -4 -180
-6z"/>
<path d="M1275 6386 c-66 -29 -91 -102 -58 -166 31 -60 65 -69 251 -70 195 0
228 10 256 81 16 40 16 45 0 87 -26 70 -62 82 -259 81 -111 0 -169 -4 -190
-13z"/>
<path d="M2165 6393 c-38 -10 -64 -35 -80 -77 -15 -39 -15 -45 1 -85 28 -70
62 -81 252 -81 181 0 220 10 252 63 25 41 25 83 0 125 -33 54 -68 62 -247 61
-87 -1 -167 -4 -178 -6z"/>
<path d="M3313 6385 c-87 -37 -93 -165 -11 -215 60 -36 131 -18 168 43 38 62
12 145 -55 173 -42 17 -61 17 -102 -1z"/>
<path d="M5083 6393 c-33 -6 -79 -57 -87 -94 -10 -50 24 -114 69 -134 53 -21
337 -22 389 0 68 29 95 109 57 171 -34 55 -70 64 -248 63 -87 -1 -168 -4 -180
-6z"/>
<path d="M5945 6386 c-66 -29 -91 -102 -58 -166 34 -66 50 -69 394 -70 366 0
375 2 409 88 18 45 -2 105 -44 135 -30 21 -40 22 -351 24 -251 2 -326 0 -350
-11z"/>
<path d="M7405 6390 c-11 -4 -31 -20 -45 -35 -20 -22 -25 -37 -25 -82 0 -49 3
-58 32 -84 59 -52 113 -51 170 6 27 27 33 41 33 74 0 56 -22 95 -64 115 -37
17 -69 20 -101 6z"/>
<path d="M8583 6393 c-53 -10 -98 -94 -80 -148 27 -82 64 -95 270 -95 154 0
166 1 198 23 58 39 74 98 43 162 -26 55 -68 65 -252 64 -86 -1 -167 -4 -179
-6z"/>
<path d="M391 6092 c-35 -19 -71 -72 -71 -105 0 -61 64 -127 123 -127 64 0
127 62 127 125 0 42 -31 89 -73 108 -45 22 -64 21 -106 -1z"/>
<path d="M969 6087 c-19 -12 -42 -39 -53 -60 -17 -37 -18 -40 -1 -83 21 -54
63 -84 119 -84 31 0 45 7 77 39 34 33 39 45 39 83 0 54 -27 94 -76 114 -46 19
-66 18 -105 -9z"/>
<path d="M1851 6092 c-35 -19 -71 -72 -71 -105 0 -61 64 -127 123 -127 64 0
127 62 127 125 0 42 -31 89 -73 108 -45 22 -64 21 -106 -1z"/>
<path d="M2735 6096 c-66 -29 -92 -102 -61 -168 41 -86 168 -91 211 -8 34 66
10 141 -55 175 -35 18 -56 18 -95 1z"/>
<path d="M3311 6092 c-38 -20 -71 -73 -71 -112 0 -57 65 -120 125 -120 58 0
125 63 125 118 0 93 -100 158 -179 114z"/>
<path d="M3905 6096 c-37 -16 -59 -41 -73 -84 -17 -49 15 -116 64 -137 52 -21
352 -22 394 0 94 48 92 173 -3 218 -46 22 -334 24 -382 3z"/>
<path d="M5655 6096 c-97 -43 -102 -172 -8 -220 28 -14 75 -16 346 -16 358 0
363 1 399 75 21 43 21 45 3 90 -14 38 -25 51 -59 66 -37 17 -69 19 -346 18
-231 0 -312 -3 -335 -13z"/>
<path d="M7115 6096 c-64 -28 -90 -88 -67 -154 11 -33 23 -47 53 -62 33 -18
59 -20 204 -20 145 0 171 2 204 19 46 24 66 65 58 122 -6 47 -29 76 -74 95
-44 19 -335 19 -378 0z"/>
<path d="M8290 6103 c-31 -11 -80 -68 -86 -98 -12 -68 51 -145 119 -145 64 0
127 62 127 125 0 77 -90 143 -160 118z"/>
<path d="M9173 6103 c-34 -6 -81 -59 -88 -97 -9 -45 16 -101 57 -126 30 -18
50 -20 204 -20 210 0 232 7 264 88 11 28 10 39 -5 78 -28 73 -63 84 -255 82
-85 0 -165 -3 -177 -5z"/>
<path d="M98 5798 c-77 -45 -88 -136 -23 -195 61 -58 150 -40 190 37 20 39 19
65 -7 111 -14 25 -34 43 -60 54 -49 19 -55 19 -100 -7z"/>
<path d="M705 5808 c-76 -26 -107 -94 -76 -164 30 -68 52 -74 249 -74 190 0
231 9 257 60 34 66 9 140 -58 171 -36 16 -65 18 -192 18 -82 0 -163 -5 -180
-11z"/>
<path d="M2733 5805 c-63 -27 -91 -112 -58 -175 39 -76 160 -79 209 -6 23 37
21 107 -6 141 -21 26 -74 55 -100 55 -7 -1 -28 -7 -45 -15z"/>
<path d="M3325 5808 c-95 -52 -110 -148 -33 -213 38 -32 104 -34 142 -4 31 24
56 69 56 99 0 39 -37 95 -74 113 -42 20 -63 21 -91 5z"/>
<path d="M3915 5808 c-43 -15 -70 -43 -83 -85 -15 -49 12 -114 57 -137 44 -23
364 -23 410 0 87 43 80 173 -12 215 -36 16 -65 18 -192 18 -82 0 -163 -5 -180
-11z"/>
<path d="M4768 5798 c-77 -45 -88 -136 -23 -195 61 -58 150 -40 190 37 20 39
19 65 -7 111 -14 25 -34 43 -60 54 -49 19 -55 19 -100 -7z"/>
<path d="M5375 5808 c-76 -26 -107 -94 -76 -164 30 -68 52 -74 254 -74 193 0
225 8 252 60 34 66 9 140 -58 171 -36 16 -65 18 -192 18 -82 0 -163 -5 -180
-11z"/>
<path d="M6545 5808 c-43 -15 -74 -46 -86 -88 -9 -31 -8 -44 7 -75 35 -74 39
-75 397 -75 261 0 323 3 347 15 95 49 93 172 -3 216 -38 17 -68 19 -337 18
-178 0 -307 -5 -325 -11z"/>
<path d="M7689 5800 c-37 -20 -69 -70 -69 -110 0 -36 28 -85 59 -103 69 -40
159 -4 182 72 10 33 9 45 -7 77 -36 72 -103 98 -165 64z"/>
<path d="M9443 5799 c-64 -32 -89 -99 -58 -159 23 -45 62 -70 110 -70 63 0
125 59 125 120 0 43 -37 97 -80 114 -50 20 -47 20 -97 -5z"/>
<path d="M1005 5517 c-57 -23 -73 -37 -87 -79 -14 -39 -13 -47 3 -85 28 -67
50 -73 254 -73 195 0 222 7 250 60 37 71 6 148 -71 174 -58 19 -301 21 -349 3z"/>
<path d="M1879 5516 c-48 -14 -76 -40 -89 -82 -19 -57 16 -127 74 -148 11 -4
163 -7 338 -6 350 0 363 2 393 60 35 67 6 145 -65 172 -39 15 -85 17 -330 16
-185 0 -298 -4 -321 -12z"/>
<path d="M3910 5512 c-37 -14 -49 -25 -68 -64 l-24 -47 20 -45 c32 -70 51 -76
257 -76 195 0 222 7 250 60 37 72 6 148 -72 174 -69 22 -301 21 -363 -2z"/>
<path d="M4793 5517 c-139 -41 -109 -237 37 -237 69 0 133 78 116 144 -16 65
-91 111 -153 93z"/>
<path d="M5375 5518 c-69 -24 -106 -90 -85 -153 43 -131 240 -103 240 35 0 81
-82 143 -155 118z"/>
<path d="M6545 5517 c-101 -32 -124 -144 -43 -212 89 -75 232 28 188 134 -25
62 -89 96 -145 78z"/>
<path d="M7422 5516 c-75 -27 -107 -93 -80 -164 24 -65 50 -72 253 -73 202 0
226 7 258 75 15 32 16 43 6 74 -16 51 -34 68 -87 86 -56 20 -299 21 -350 2z"/>
<path d="M8580 5512 c-37 -14 -49 -25 -68 -64 l-24 -47 20 -45 c34 -76 35 -76
405 -76 320 0 324 0 357 23 43 29 63 84 48 130 -30 89 -64 97 -412 96 -239 0
-288 -3 -326 -17z"/>
<path d="M1230 5230 c-270 -6 -277 -7 -306 -69 -21 -45 -21 -73 3 -113 36 -62
44 -63 400 -63 309 0 323 1 350 21 15 11 36 37 46 57 16 31 16 41 6 77 -8 25
-24 49 -43 63 -40 28 -132 34 -456 27z"/>
<path d="M2545 5230 c-350 -4 -393 -7 -416 -23 -77 -52 -68 -163 17 -207 25
-13 116 -15 639 -15 572 0 613 1 638 18 33 21 67 74 66 102 0 39 -34 90 -70
108 -43 21 -258 25 -874 17z"/>
<path d="M4150 5230 c-277 -6 -285 -8 -315 -82 -15 -39 -15 -42 7 -87 40 -80
5 -76 688 -76 677 0 656 -2 691 68 35 67 5 144 -64 166 -38 13 -619 19 -1007
11z"/>
<path d="M6333 5229 c-113 -6 -134 -16 -160 -78 -15 -36 -10 -81 14 -117 27
-41 67 -49 250 -49 193 0 208 5 248 78 18 34 19 39 5 78 -23 65 -54 82 -163
89 -51 3 -138 2 -194 -1z"/>
<path d="M7792 5229 c-99 -5 -104 -7 -134 -37 -27 -26 -32 -39 -32 -79 0 -29
7 -59 18 -74 30 -47 65 -54 253 -54 193 0 208 5 248 78 18 34 19 38 4 78 -24
66 -54 82 -162 89 -51 3 -138 2 -195 -1z"/>
<path d="M9110 5230 c-270 -6 -277 -7 -306 -69 -19 -40 -13 -94 14 -131 35
-46 80 -51 409 -48 287 3 303 4 330 24 15 11 37 37 48 57 18 34 19 38 4 78
-24 66 -54 82 -162 89 -51 3 -202 3 -337 0z"/>
<path d="M110 5223 c-30 -11 -70 -57 -76 -89 -14 -77 40 -145 117 -146 49 0
86 24 114 75 18 34 19 39 5 79 -23 67 -97 104 -160 81z"/>
<path d="M7101 5213 c-47 -23 -77 -90 -61 -137 31 -95 151 -120 214 -45 48 57
29 151 -38 183 -43 20 -72 20 -115 -1z"/>
<path d="M413 4933 c-33 -6 -79 -57 -86 -93 -11 -51 19 -109 67 -131 39 -18
85 -19 927 -19 979 0 939 -3 979 63 38 62 15 138 -53 170 -32 16 -113 17 -924
16 -488 -1 -898 -4 -910 -6z"/>
<path d="M3600 4922 c-45 -25 -74 -81 -66 -127 9 -44 57 -92 103 -101 69 -13
143 50 143 121 0 61 -63 125 -122 125 -13 0 -39 -8 -58 -18z"/>
<path d="M4485 4930 c-11 -4 -31 -20 -45 -35 -35 -38 -36 -122 -1 -159 29 -30
83 -50 116 -42 38 10 84 55 94 93 26 92 -75 180 -164 143z"/>
<path d="M6811 4922 c-35 -19 -71 -72 -71 -105 0 -57 72 -127 131 -127 58 0
119 66 119 128 0 59 -63 122 -122 122 -13 0 -39 -8 -57 -18z"/>
<path d="M7405 4930 c-11 -4 -31 -20 -45 -35 -20 -22 -25 -37 -25 -82 0 -49 3
-58 32 -84 59 -52 113 -51 170 6 27 27 33 41 33 74 0 56 -22 95 -64 115 -37
17 -69 20 -101 6z"/>
<path d="M8003 4933 c-54 -10 -100 -88 -86 -144 21 -82 67 -99 267 -99 174 0
214 10 246 63 25 40 25 72 2 116 -31 62 -65 71 -247 70 -88 -1 -170 -4 -182
-6z"/>
<path d="M9153 4926 c-90 -41 -92 -175 -3 -218 28 -14 66 -17 198 -18 192 0
225 10 257 79 16 37 17 46 5 82 -8 23 -26 49 -44 62 -29 20 -44 22 -206 25
-134 1 -182 -1 -207 -12z"/>
<path d="M123 4643 c-34 -7 -81 -59 -89 -98 -9 -48 21 -105 66 -127 31 -15 74
-17 350 -17 295 -1 317 0 347 19 79 48 83 154 6 206 -26 18 -51 19 -343 20
-173 1 -325 0 -337 -3z"/>
<path d="M2160 4643 c-31 -11 -80 -68 -86 -99 -12 -66 52 -144 119 -144 64 0
127 61 127 122 0 80 -88 147 -160 121z"/>
<path d="M2735 4636 c-45 -20 -67 -50 -72 -98 -5 -52 11 -85 56 -115 41 -28
86 -29 125 -4 82 54 74 171 -14 216 -35 18 -56 18 -95 1z"/>
<path d="M3625 4643 c-38 -10 -64 -35 -80 -78 -16 -41 -16 -45 3 -88 33 -75
43 -77 407 -77 308 0 312 0 346 23 61 41 76 105 39 165 -36 59 -56 62 -392 61
-167 -1 -312 -4 -323 -6z"/>
<path d="M4771 4632 c-38 -20 -71 -73 -71 -112 0 -59 66 -120 128 -120 42 0
94 39 111 83 39 102 -73 202 -168 149z"/>
<path d="M5655 4636 c-97 -43 -102 -172 -8 -220 46 -23 347 -23 396 0 92 44
89 181 -5 219 -51 20 -338 21 -383 1z"/>
<path d="M6830 4639 c-37 -15 -68 -48 -80 -85 -17 -50 16 -118 65 -139 54 -22
353 -22 396 0 63 33 86 112 50 171 -33 55 -70 64 -248 63 -87 0 -169 -5 -183
-10z"/>
<path d="M7693 4635 c-39 -17 -63 -53 -69 -102 -6 -47 11 -81 55 -110 67 -45
153 -15 180 63 13 36 12 44 -6 85 -15 33 -30 50 -56 62 -42 20 -62 21 -104 2z"/>
<path d="M9173 4643 c-34 -7 -81 -59 -89 -98 -9 -48 21 -105 66 -127 29 -15
63 -18 196 -18 205 0 232 9 264 88 11 28 10 39 -5 78 -28 73 -63 84 -255 82
-85 0 -165 -3 -177 -5z"/>
<path d="M1864 4346 c-97 -42 -108 -164 -20 -217 30 -18 71 -19 1079 -19 1157
0 1087 -4 1127 63 39 64 16 136 -53 168 -40 18 -81 19 -1072 18 -844 0 -1036
-2 -1061 -13z"/>
<path d="M4484 4341 c-27 -12 -46 -30 -57 -54 -21 -43 -21 -56 -2 -105 28 -70
41 -72 403 -72 297 0 319 1 349 20 34 20 63 66 63 98 0 46 -31 93 -73 112 -38
18 -68 20 -342 20 -271 0 -304 -2 -341 -19z"/>
<path d="M5943 4345 c-18 -8 -42 -29 -53 -47 -65 -108 48 -231 160 -173 42 22
60 53 60 106 0 55 -26 94 -76 115 -41 17 -50 17 -91 -1z"/>
<path d="M7994 4346 c-96 -42 -108 -163 -22 -216 30 -18 50 -20 206 -20 193 0
218 6 252 63 24 39 25 63 5 111 -26 63 -70 76 -255 75 -108 0 -164 -4 -186
-13z"/>
<path d="M8862 4340 c-66 -30 -88 -97 -56 -166 27 -56 60 -64 256 -64 197 0
219 6 249 74 31 72 -1 138 -80 165 -19 6 -97 11 -180 11 -123 0 -153 -4 -189
-20z"/>
<path d="M115 4056 c-130 -59 -98 -236 43 -236 45 0 84 26 107 70 20 39 19 69
-5 107 -35 58 -94 82 -145 59z"/>
<path d="M698 4057 c-94 -42 -113 -148 -37 -212 55 -45 152 -27 184 35 34 66
9 140 -58 171 -48 21 -52 22 -89 6z"/>
<path d="M1310 4063 c-54 -20 -80 -38 -94 -68 -20 -42 -20 -68 0 -111 28 -58
51 -64 251 -64 159 0 181 2 210 20 45 27 67 82 52 129 -16 49 -27 61 -77 82
-36 16 -68 19 -185 18 -78 0 -149 -3 -157 -6z"/>
<path d="M3042 4056 c-84 -30 -110 -99 -70 -183 25 -52 40 -54 543 -53 511 0
509 0 540 60 35 67 6 145 -65 172 -40 15 -93 17 -480 17 -315 0 -444 -4 -468
-13z"/>
<path d="M4483 4049 c-122 -60 -81 -229 56 -229 99 0 152 127 84 202 -15 17
-74 48 -92 48 -3 0 -25 -9 -48 -21z"/>
<path d="M5666 4054 c-53 -19 -64 -30 -78 -75 -16 -55 3 -114 45 -139 31 -19
56 -20 795 -20 837 0 805 -2 837 60 37 71 6 148 -71 174 -42 14 -128 16 -768
15 -598 0 -728 -3 -760 -15z"/>
<path d="M8293 4056 c-76 -28 -105 -91 -74 -162 33 -73 36 -74 401 -74 352 0
365 2 395 60 37 71 6 148 -71 174 -40 13 -94 16 -333 15 -189 -1 -297 -5 -318
-13z"/>
<path d="M9455 4056 c-130 -59 -98 -236 43 -236 45 0 84 26 107 70 20 39 19
69 -5 107 -35 58 -94 82 -145 59z"/>
<path d="M1953 3770 c-106 -6 -139 -23 -162 -84 -12 -31 -12 -41 3 -79 10 -27
28 -50 49 -62 30 -19 52 -20 352 -20 287 0 323 2 352 18 58 31 76 93 49 158
-18 41 -43 58 -99 65 -59 7 -433 10 -544 4z"/>
<path d="M4000 3770 c-111 -6 -140 -21 -165 -82 -15 -39 -15 -42 7 -87 13 -25
34 -51 48 -58 36 -16 589 -27 656 -13 65 14 95 44 101 103 7 57 -17 104 -62
123 -37 15 -401 24 -585 14z"/>
<path d="M7210 3770 c-98 -6 -130 -17 -149 -55 -28 -54 -29 -71 -11 -113 30
-66 53 -73 253 -73 96 0 186 5 200 10 15 6 36 25 47 43 38 63 18 142 -42 171
-38 18 -160 24 -298 17z"/>
<path d="M8083 3770 c-106 -6 -139 -23 -162 -84 -12 -31 -12 -41 3 -79 10 -27
28 -50 49 -62 30 -19 52 -20 352 -20 287 0 323 2 352 18 58 31 76 93 49 158
-18 41 -43 58 -99 65 -59 7 -433 10 -544 4z"/>
<path d="M394 3760 c-12 -4 -31 -20 -42 -35 -65 -82 -11 -195 93 -195 102 0
158 99 102 181 -36 53 -95 73 -153 49z"/>
<path d="M971 3753 c-23 -11 -40 -31 -53 -60 -17 -38 -18 -48 -6 -79 20 -56
60 -84 120 -84 44 0 54 4 84 34 28 28 34 42 34 75 0 57 -24 100 -65 117 -44
18 -72 17 -114 -3z"/>
<path d="M5064 3760 c-57 -23 -86 -101 -59 -159 53 -118 235 -81 235 47 0 35
-37 92 -70 109 -28 14 -75 16 -106 3z"/>
<path d="M5643 3754 c-20 -10 -40 -32 -53 -60 -19 -39 -20 -47 -8 -80 20 -56
60 -84 120 -84 44 0 54 4 84 34 28 28 34 42 34 75 0 57 -24 100 -65 117 -44
18 -72 17 -112 -2z"/>
<path d="M6524 3760 c-12 -4 -31 -20 -42 -35 -66 -83 -11 -196 95 -195 47 1
78 17 104 56 25 39 24 84 -4 125 -36 53 -95 73 -153 49z"/>
<path d="M9155 3760 c-57 -23 -89 -102 -65 -160 42 -101 195 -91 230 14 30 93
-72 185 -165 146z"/>
<path d="M105 3470 c-43 -17 -70 -59 -70 -109 0 -58 24 -98 72 -118 48 -20 95
-10 132 28 94 94 -11 250 -134 199z"/>
<path d="M1565 3471 c-38 -17 -67 -59 -72 -103 -6 -58 26 -107 84 -127 38 -14
45 -13 83 4 31 14 48 30 63 62 20 40 20 46 7 85 -8 23 -27 50 -41 60 -29 22
-94 32 -124 19z"/>
<path d="M2141 3462 c-35 -19 -71 -72 -71 -105 0 -40 38 -93 80 -112 38 -17
45 -18 83 -4 87 30 114 125 55 193 -41 47 -95 57 -147 28z"/>
<path d="M3020 3462 c-68 -33 -88 -124 -40 -184 36 -46 60 -48 682 -48 502 0
591 2 622 15 97 41 101 181 7 218 -37 15 -106 17 -639 17 -548 0 -600 -1 -632
-18z"/>
<path d="M5063 3464 c-60 -30 -82 -91 -57 -155 13 -32 27 -46 58 -60 37 -17
70 -19 342 -19 335 0 358 4 394 63 39 64 15 145 -51 171 -58 24 -638 23 -686
0z"/>
<path d="M6520 3462 c-45 -22 -75 -79 -66 -127 8 -43 57 -92 100 -100 70 -14
146 49 146 120 0 60 -63 125 -122 125 -13 0 -39 -8 -58 -18z"/>
<path d="M7123 3473 c-31 -6 -68 -46 -80 -87 -9 -30 -8 -42 10 -78 39 -77 50
-79 412 -76 299 3 315 4 342 24 15 11 36 37 47 58 17 35 17 40 2 81 -31 81
-28 80 -391 81 -176 1 -330 0 -342 -3z"/>
<path d="M8564 3464 c-42 -20 -78 -85 -69 -124 9 -42 49 -87 90 -100 46 -15
96 1 130 41 47 57 26 152 -41 184 -40 19 -71 19 -110 -1z"/>
<path d="M9155 3466 c-50 -22 -68 -51 -69 -105 -1 -60 24 -99 75 -117 21 -8
92 -13 189 -13 187 -1 224 11 254 78 17 37 18 46 6 82 -8 23 -26 49 -44 62
-29 20 -44 22 -206 24 -130 2 -183 -1 -205 -11z"/>
<path d="M103 3176 c-89 -40 -95 -165 -10 -216 65 -40 148 -10 176 63 38 100
-68 197 -166 153z"/>
<path d="M1583 3183 c-34 -7 -81 -59 -89 -98 -9 -48 21 -105 66 -127 29 -14
65 -17 200 -17 189 0 223 9 252 69 21 44 22 59 3 104 -27 63 -70 76 -255 74
-85 0 -165 -3 -177 -5z"/>
<path d="M2445 3176 c-58 -26 -90 -89 -71 -141 32 -87 54 -95 263 -95 149 0
172 2 200 20 49 30 66 63 60 116 -5 51 -27 81 -74 100 -44 19 -335 19 -378 0z"/>
<path d="M3625 3183 c-38 -10 -64 -35 -80 -78 -16 -41 -16 -45 3 -88 31 -69
58 -77 259 -77 183 0 209 7 243 63 38 62 15 138 -53 170 -28 14 -64 17 -194
16 -87 -1 -167 -4 -178 -6z"/>
<path d="M4480 3172 c-66 -35 -86 -116 -45 -179 29 -44 70 -53 243 -53 193 0
222 8 254 75 21 43 21 44 3 90 -28 74 -61 85 -260 85 -136 0 -166 -3 -195 -18z"/>
<path d="M6233 3175 c-60 -26 -89 -106 -59 -164 21 -39 70 -71 111 -71 61 0
125 65 125 127 0 33 -36 86 -71 105 -40 21 -63 22 -106 3z"/>
<path d="M7120 3183 c-28 -10 -69 -56 -80 -88 -22 -68 45 -155 120 -155 30 0
75 25 99 56 69 87 -34 225 -139 187z"/>
<path d="M8003 3183 c-32 -6 -79 -56 -86 -91 -12 -59 17 -115 71 -137 28 -12
96 -15 346 -15 291 0 313 1 343 20 86 52 81 170 -10 213 -31 15 -74 17 -339
16 -166 -1 -313 -4 -325 -6z"/>
<path d="M9155 3176 c-45 -20 -67 -50 -72 -98 -5 -52 11 -85 56 -115 74 -50
162 -11 185 80 10 43 -23 110 -67 130 -42 20 -62 21 -102 3z"/>
<path d="M101 2882 c-80 -43 -92 -141 -25 -199 68 -60 163 -33 193 54 14 38
13 45 -4 83 -13 28 -31 48 -56 61 -47 24 -65 24 -108 1z"/>
<path d="M694 2886 c-37 -16 -70 -57 -79 -95 -15 -68 52 -141 129 -141 31 0
45 7 77 39 32 32 39 46 39 77 0 51 -32 102 -75 120 -42 17 -51 17 -91 0z"/>
<path d="M1270 2878 c-36 -18 -48 -31 -59 -64 -13 -37 -13 -46 2 -86 27 -70
53 -78 260 -77 196 1 219 7 250 73 21 44 16 82 -15 122 -37 46 -73 54 -241 54
-139 0 -157 -2 -197 -22z"/>
<path d="M2454 2889 c-37 -10 -68 -43 -82 -87 -9 -27 -8 -40 8 -77 31 -73 41
-75 405 -75 356 0 363 1 396 75 30 68 -1 136 -74 164 -35 13 -608 13 -653 0z"/>
<path d="M4215 2893 c-52 -14 -95 -69 -95 -124 0 -39 30 -85 66 -102 31 -15
105 -17 785 -17 643 0 754 2 779 15 95 49 93 172 -3 216 -40 18 -75 19 -777
18 -404 -1 -744 -4 -755 -6z"/>
<path d="M6235 2881 c-63 -29 -88 -91 -61 -155 28 -67 57 -76 254 -76 193 0
218 6 252 63 25 40 25 68 0 116 -30 60 -70 71 -253 71 -127 0 -159 -4 -192
-19z"/>
<path d="M7120 2889 c-37 -15 -68 -48 -80 -85 -15 -45 15 -116 59 -138 54 -28
98 -21 142 23 33 33 39 45 39 81 0 51 -30 97 -76 116 -38 16 -50 16 -84 3z"/>
<path d="M8584 2889 c-37 -10 -68 -43 -82 -87 -9 -27 -8 -40 8 -77 31 -73 41
-75 405 -75 356 0 363 1 396 75 30 68 -1 136 -74 164 -35 13 -608 13 -653 0z"/>
<path d="M103 2590 c-65 -33 -89 -99 -58 -164 43 -90 173 -88 220 4 20 39 19
69 -5 107 -39 64 -96 83 -157 53z"/>
<path d="M698 2597 c-95 -43 -113 -152 -34 -212 58 -44 149 -27 181 35 34 66
9 140 -58 171 -48 21 -52 22 -89 6z"/>
<path d="M1875 2598 c-73 -25 -109 -96 -82 -161 29 -68 58 -77 255 -77 193 0
218 6 252 63 24 39 25 71 2 117 -27 55 -77 69 -252 69 -80 0 -158 -5 -175 -11z"/>
<path d="M2733 2591 c-119 -55 -84 -231 47 -231 38 0 84 23 104 52 23 33 21
109 -5 142 -18 23 -77 56 -98 56 -3 0 -25 -9 -48 -19z"/>
<path d="M3614 2596 c-34 -15 -72 -58 -80 -92 -9 -34 14 -90 47 -119 23 -19
42 -25 76 -25 39 0 50 5 84 39 31 31 39 46 39 75 0 55 -25 95 -73 117 -50 22
-53 22 -93 5z"/>
<path d="M4484 2591 c-42 -19 -74 -67 -74 -110 0 -101 123 -159 199 -95 75 63
52 178 -42 213 -36 14 -34 14 -83 -8z"/>
<path d="M5070 2592 c-40 -20 -80 -74 -80 -109 0 -65 60 -123 128 -123 38 0
50 5 83 39 31 31 39 46 39 76 0 52 -32 100 -80 119 -50 20 -47 20 -90 -2z"/>
<path d="M5650 2587 c-58 -29 -81 -82 -61 -147 21 -72 46 -80 254 -80 197 0
224 7 252 60 34 66 9 140 -58 171 -35 16 -66 19 -192 18 -134 0 -155 -2 -195
-22z"/>
<path d="M6540 2599 c-68 -27 -104 -100 -80 -159 42 -102 174 -108 225 -10 31
61 5 132 -59 161 -47 21 -51 22 -86 8z"/>
<path d="M7112 2590 c-34 -15 -47 -29 -63 -64 -19 -44 -19 -45 0 -89 35 -82
-17 -77 841 -77 835 0 803 -2 835 60 34 66 8 141 -60 170 -45 19 -70 20 -778
19 -698 0 -734 -1 -775 -19z"/>
<path d="M9455 2596 c-55 -25 -80 -62 -80 -118 0 -44 4 -53 37 -84 31 -28 46
-34 82 -34 49 0 87 24 111 70 20 39 19 69 -5 107 -35 58 -94 82 -145 59z"/>
<path d="M2535 2310 c-105 -6 -136 -22 -159 -81 -15 -38 -15 -43 3 -84 33 -76
36 -76 401 -75 175 0 329 4 342 9 97 37 92 188 -6 221 -35 11 -436 18 -581 10z"/>
<path d="M4580 2309 c-54 -3 -104 -11 -117 -19 -68 -43 -62 -169 10 -206 43
-23 669 -21 704 1 31 21 63 73 63 105 0 38 -37 90 -75 106 -38 16 -405 24
-585 13z"/>
<path d="M5745 2310 c-100 -6 -127 -19 -150 -66 -19 -40 -19 -65 -1 -109 25
-58 53 -66 252 -66 192 0 224 8 251 62 32 62 1 149 -59 167 -43 13 -180 19
-293 12z"/>
<path d="M6915 2310 c-96 -6 -123 -16 -147 -52 -27 -43 -29 -72 -5 -119 33
-65 50 -70 251 -70 194 0 223 7 251 61 31 60 9 137 -46 162 -39 18 -172 26
-304 18z"/>
<path d="M3882 2290 c-46 -28 -68 -82 -53 -131 32 -105 177 -123 227 -28 58
112 -66 225 -174 159z"/>
<path d="M8274 2300 c-30 -12 -62 -56 -70 -95 -12 -65 49 -135 118 -135 75 0
128 50 128 120 0 84 -94 143 -176 110z"/>
<path d="M8853 2294 c-20 -10 -40 -32 -53 -59 -20 -41 -20 -45 -4 -84 23 -58
56 -81 116 -81 43 0 54 4 84 34 28 28 34 42 34 75 0 104 -86 159 -177 115z"/>
<path d="M9445 2301 c-62 -27 -89 -103 -60 -165 21 -44 59 -66 116 -66 33 0
47 6 74 33 56 56 58 111 7 168 -21 24 -38 32 -72 35 -25 2 -54 0 -65 -5z"/>
<path d="M572 2039 c-247 -32 -453 -205 -535 -448 -22 -65 -22 -76 -22 -561 0
-492 0 -495 23 -565 69 -204 229 -365 427 -428 69 -22 81 -22 570 -22 l500 0
65 24 c208 77 343 214 413 421 l32 95 0 465 c0 425 -2 470 -19 525 -27 90 -73
184 -117 242 -39 53 -144 143 -210 180 -58 33 -163 63 -261 73 -110 11 -776
11 -866 -1z m841 -290 c92 -14 145 -40 213 -102 68 -62 108 -138 123 -234 15
-95 15 -704 0 -775 -36 -173 -173 -309 -340 -337 -97 -16 -684 -14 -781 3
-156 28 -271 129 -315 278 -21 69 -31 714 -13 816 30 175 156 312 320 348 73
16 693 18 793 3z"/>
<path d="M745 1441 c-61 -28 -102 -67 -129 -126 -26 -53 -26 -57 -26 -293 0
-197 3 -246 16 -278 26 -64 61 -101 118 -128 54 -26 57 -26 298 -26 215 0 248
3 284 19 58 26 109 74 133 126 20 42 21 61 21 292 0 239 -1 250 -24 298 -13
28 -38 63 -56 78 -64 54 -82 57 -349 57 -216 0 -251 -3 -286 -19z"/>
<path d="M2744 2013 c-12 -2 -34 -17 -49 -33 -37 -38 -41 -113 -9 -156 37 -51
54 -52 534 -53 417 -1 448 1 487 19 31 14 46 29 58 56 20 48 19 72 -5 112 -38
62 -41 62 -542 61 -249 -1 -463 -4 -474 -6z"/>
<path d="M5063 2004 c-60 -30 -82 -91 -57 -154 31 -76 20 -75 529 -78 478 -3
503 -1 545 44 45 47 35 145 -19 181 -24 17 -62 18 -496 20 -414 3 -474 1 -502
-13z"/>
<path d="M6523 2004 c-60 -30 -82 -91 -57 -155 13 -32 27 -46 58 -60 37 -17
69 -19 341 -18 332 1 355 4 393 59 42 62 18 147 -50 175 -58 23 -638 22 -685
-1z"/>
<path d="M7695 2010 c-65 -27 -93 -117 -55 -178 25 -40 80 -66 121 -57 43 10
87 51 100 94 28 92 -74 179 -166 141z"/>
<path d="M8273 2004 c-85 -42 -90 -161 -10 -210 30 -18 56 -19 492 -22 424 -2
463 -1 494 15 19 10 43 30 53 44 36 48 20 132 -31 166 -24 17 -62 18 -496 20
-414 3 -474 1 -502 -13z"/>
<path d="M3020 1712 c-91 -48 -88 -178 6 -217 54 -22 1510 -23 1554 0 65 34
89 109 55 174 -31 62 -19 61 -838 61 -701 0 -744 -1 -777 -18z"/>
<path d="M5083 1723 c-33 -6 -79 -57 -87 -94 -4 -21 0 -46 13 -75 32 -72 44
-74 405 -74 291 0 313 1 343 20 61 37 79 108 43 168 -36 59 -55 62 -392 61
-167 -1 -313 -4 -325 -6z"/>
<path d="M6840 1723 c-43 -14 -62 -30 -81 -70 -21 -43 -21 -45 -4 -89 28 -74
60 -84 260 -84 185 0 211 7 245 63 25 41 25 83 0 125 -33 53 -68 62 -247 61
-87 0 -165 -3 -173 -6z"/>
<path d="M8270 1712 c-45 -25 -74 -81 -66 -126 15 -78 103 -126 172 -92 41 19
74 69 74 111 0 43 -35 94 -75 111 -45 18 -63 18 -105 -4z"/>
<path d="M8865 1716 c-66 -29 -91 -102 -58 -166 35 -67 50 -70 394 -70 355 0
366 2 401 75 20 40 20 48 8 85 -8 24 -26 50 -44 63 -30 21 -40 22 -351 24
-251 2 -326 0 -350 -11z"/>
<path d="M2450 1429 c-37 -15 -68 -48 -80 -85 -15 -45 15 -116 59 -138 54 -28
98 -21 142 23 33 33 39 45 39 81 0 51 -30 97 -76 116 -38 16 -50 16 -84 3z"/>
<path d="M3620 1433 c-31 -11 -80 -68 -86 -98 -12 -68 51 -145 119 -145 64 0
127 62 127 125 0 76 -91 143 -160 118z"/>
<path d="M4195 1426 c-64 -28 -93 -95 -69 -156 38 -95 174 -107 219 -20 35 69
8 147 -61 176 -40 17 -51 17 -89 0z"/>
<path d="M6253 1433 c-34 -6 -81 -59 -88 -97 -9 -45 16 -101 57 -126 30 -18
50 -20 206 -20 193 0 218 6 252 63 24 39 25 63 5 111 -27 63 -70 76 -255 74
-85 0 -165 -3 -177 -5z"/>
<path d="M7124 1429 c-36 -10 -68 -43 -81 -84 -8 -23 -7 -41 6 -75 30 -82 0
-79 696 -79 588 -1 611 0 642 19 34 20 63 66 63 98 0 46 -31 93 -73 112 -40
19 -72 20 -632 19 -324 0 -604 -5 -621 -10z"/>
<path d="M9173 1433 c-34 -6 -81 -59 -88 -97 -9 -45 16 -101 57 -126 30 -18
50 -20 204 -20 210 0 232 7 264 88 11 28 10 39 -5 78 -28 73 -63 84 -255 82
-85 0 -165 -3 -177 -5z"/>
<path d="M2444 1136 c-69 -30 -97 -101 -65 -165 23 -45 64 -71 111 -71 129 0
166 171 50 230 -46 23 -54 24 -96 6z"/>
<path d="M3026 1130 c-67 -34 -88 -89 -61 -157 30 -75 7 -73 696 -73 669 0
652 -1 684 60 34 66 9 140 -58 171 -40 18 -74 19 -632 18 -563 0 -592 -1 -629
-19z"/>
<path d="M4773 1130 c-82 -41 -95 -136 -28 -197 61 -58 150 -40 190 37 20 39
19 69 -5 107 -39 64 -96 83 -157 53z"/>
<path d="M5364 1136 c-37 -16 -70 -57 -79 -95 -14 -66 51 -141 122 -141 45 0
75 16 101 54 42 62 21 141 -48 176 -46 23 -54 24 -96 6z"/>
<path d="M6835 1138 c-76 -26 -107 -94 -76 -164 33 -73 36 -74 401 -74 352 0
365 2 395 60 34 66 9 140 -58 171 -38 17 -68 19 -337 18 -178 0 -307 -5 -325
-11z"/>
<path d="M8295 1138 c-42 -15 -72 -45 -85 -84 -9 -28 -8 -41 8 -78 32 -70 51
-76 255 -76 165 0 176 1 208 23 84 57 77 166 -14 208 -36 16 -65 18 -192 18
-82 0 -163 -5 -180 -11z"/>
<path d="M9149 1130 c-37 -20 -69 -70 -69 -110 0 -36 28 -85 59 -103 101 -60
225 48 174 150 -35 71 -102 97 -164 63z"/>
<path d="M2442 840 c-29 -13 -47 -30 -62 -61 -20 -38 -21 -46 -9 -81 34 -105
175 -122 225 -27 53 104 -48 216 -154 169z"/>
<path d="M3044 845 c-84 -24 -112 -97 -71 -183 24 -50 42 -53 393 -53 360 0
355 0 394 64 24 39 25 68 3 110 -20 40 -39 54 -83 63 -56 11 -597 10 -636 -1z"/>
<path d="M4217 846 c-78 -23 -113 -91 -85 -164 24 -65 50 -72 253 -73 154 0
181 3 209 19 42 25 58 58 53 115 -8 91 -63 116 -262 115 -71 0 -147 -5 -168
-12z"/>
<path d="M5089 847 c-100 -32 -127 -138 -53 -208 25 -23 31 -24 214 -27 211
-4 236 2 264 59 20 41 20 70 -1 113 -28 59 -65 70 -238 72 -91 1 -164 -2 -186
-9z"/>
<path d="M6253 847 c-74 -22 -110 -102 -78 -171 45 -95 183 -86 225 14 35 84
-58 183 -147 157z"/>
<path d="M6830 842 c-71 -24 -100 -90 -70 -158 33 -76 19 -75 544 -74 256 0
473 3 483 7 55 19 90 87 72 142 -15 47 -27 61 -69 80 -30 14 -94 16 -477 16
-342 0 -452 -3 -483 -13z"/>
<path d="M4880 560 c-110 -6 -143 -21 -166 -76 -29 -70 8 -142 82 -163 24 -7
152 -11 329 -11 263 0 294 2 332 19 69 32 92 104 53 168 -33 55 -45 58 -300
63 -129 3 -278 3 -330 0z"/>
<path d="M7650 560 c-262 -5 -275 -8 -302 -59 -20 -37 -16 -105 8 -138 37 -49
77 -54 411 -51 287 3 303 4 330 24 15 11 37 37 48 57 18 34 19 38 4 78 -24 66
-54 82 -162 89 -51 3 -202 3 -337 0z"/>
<path d="M2734 550 c-11 -4 -33 -23 -48 -41 -24 -29 -28 -39 -24 -81 6 -57 35
-93 85 -107 105 -29 189 80 137 180 -24 47 -96 71 -150 49z"/>
<path d="M3310 547 c-32 -16 -70 -73 -70 -104 0 -49 31 -95 78 -115 42 -19 46
-19 87 -3 77 29 106 111 63 175 -27 40 -61 60 -103 60 -16 0 -41 -6 -55 -13z"/>
<path d="M3891 543 c-23 -11 -40 -31 -53 -61 l-20 -43 24 -47 c34 -69 55 -76
238 -80 114 -2 166 1 195 11 94 33 115 160 36 214 -22 15 -53 18 -206 21 -154
2 -185 0 -214 -15z"/>
<path d="M6525 546 c-59 -26 -84 -93 -59 -156 27 -68 51 -75 254 -75 194 0
225 8 255 65 32 62 4 139 -60 166 -47 19 -346 19 -390 0z"/>
<path d="M8590 554 c-44 -16 -62 -31 -81 -71 l-21 -43 24 -48 c34 -69 55 -76
238 -80 114 -2 166 1 195 11 94 33 115 160 36 214 -22 15 -53 18 -201 20 -96
1 -182 0 -190 -3z"/>
<path d="M3023 255 c-90 -39 -92 -174 -3 -217 31 -15 74 -17 341 -18 341 0
363 3 399 63 25 40 25 72 2 116 -34 68 -49 71 -397 71 -241 -1 -317 -4 -342
-15z"/>
<path d="M4204 263 c-12 -2 -33 -17 -48 -32 -56 -58 -38 -158 34 -193 48 -23
346 -26 390 -3 65 34 89 109 55 174 -25 50 -74 61 -253 60 -86 -1 -167 -4
-178 -6z"/>
<path d="M5060 252 c-73 -40 -88 -130 -31 -191 98 -105 266 23 191 146 -21 35
-66 63 -102 63 -13 0 -39 -8 -58 -18z"/>
<path d="M5945 260 c-11 -4 -31 -20 -45 -35 -20 -22 -25 -37 -25 -82 0 -49 3
-58 32 -84 59 -52 113 -51 170 6 27 27 33 41 33 74 0 56 -22 95 -64 115 -37
17 -69 20 -101 6z"/>
<path d="M6835 263 c-38 -10 -64 -35 -80 -77 -15 -39 -15 -45 1 -85 27 -69 64
-81 255 -81 178 0 217 10 249 63 25 41 25 83 0 125 -33 54 -68 62 -247 61 -87
-1 -167 -4 -178 -6z"/>
<path d="M9155 261 c-90 -40 -97 -169 -12 -221 63 -39 138 -14 169 58 19 42
19 46 3 87 -9 24 -28 51 -42 60 -31 20 -90 28 -118 16z"/>
</g>
</svg>
