<?xml version="1.0" standalone="no"?>
<!DOCTYPE svg PUBLIC "-//W3C//DTD SVG 20010904//EN"
 "http://www.w3.org/TR/2001/REC-SVG-20010904/DTD/svg10.dtd">
<svg version="1.0" xmlns="http://www.w3.org/2000/svg"
 width="966.000000pt" height="966.000000pt" viewBox="0 0 966.000000 966.000000"
 preserveAspectRatio="xMidYMid meet">

<g transform="translate(0.000000,966.000000) scale(0.100000,-0.100000)"
fill="#000000" stroke="none">
<path d="M470 9625 c-214 -70 -363 -214 -433 -424 -22 -65 -22 -76 -22 -561 0
-491 0 -496 23 -565 84 -252 292 -421 560 -454 106 -13 734 -14 855 -1 268 28
472 192 560 450 l32 95 0 470 -1 470 -28 80 c-38 109 -66 160 -120 226 -91
111 -214 187 -357 223 -56 14 -133 16 -530 16 -463 -1 -464 -1 -539 -25z m935
-265 c183 -26 315 -156 344 -340 15 -89 14 -704 0 -772 -37 -175 -173 -310
-340 -338 -84 -13 -685 -13 -769 1 -159 25 -276 124 -326 275 -14 41 -18 108
-21 396 -5 378 1 452 43 544 50 110 166 203 286 229 76 16 674 20 783 5z"/>
<path d="M737 9046 c-65 -32 -93 -60 -122 -122 -24 -52 -25 -58 -25 -294 0
-238 0 -242 26 -296 14 -30 40 -65 58 -79 68 -52 87 -55 351 -55 240 0 247 1
294 24 26 14 62 41 79 61 59 67 62 83 62 354 0 237 -1 248 -24 296 -13 28 -38
63 -56 78 -64 54 -82 57 -349 57 -238 -1 -248 -1 -294 -24z"/>
<path d="M2413 9630 c-91 -55 -94 -183 -6 -248 l28 -21 -36 -30 c-73 -61 -76
-158 -8 -223 44 -42 48 -54 19 -63 -27 -9 -70 -84 -70 -124 0 -43 23 -85 62
-114 68 -51 132 -45 192 18 l41 42 40 -42 c70 -72 154 -69 221 8 27 31 38 38
42 27 3 -8 22 -31 43 -50 l37 -35 -37 -32 c-128 -107 -7 -309 147 -247 52 20
83 62 89 118 6 54 -20 113 -59 135 -35 20 -35 26 2 58 60 50 75 114 43 181 -9
19 -29 42 -45 51 -15 9 -28 19 -28 23 0 4 21 29 47 54 43 43 48 46 57 29 35
-60 105 -92 167 -75 19 5 52 27 73 49 l38 39 42 -43 c69 -69 145 -67 215 5
l38 39 22 -30 c13 -17 43 -40 67 -50 37 -17 50 -18 85 -9 53 15 94 55 110 108
17 58 -9 125 -59 155 l-35 21 36 30 c68 58 82 142 35 208 -30 44 -73 61 -135
56 -135 -11 -181 -176 -73 -260 l32 -25 -46 -46 -45 -46 -23 28 c-66 82 -177
81 -242 -1 l-26 -33 -26 33 c-66 83 -172 83 -237 1 l-24 -31 -48 47 -47 47 36
30 c81 67 69 195 -24 243 -64 33 -159 8 -190 -50 -17 -31 -24 -31 -44 0 -26
39 -75 65 -124 65 -54 0 -78 -12 -118 -57 l-31 -35 -22 31 c-44 61 -134 80
-198 41z m237 -191 c0 -6 19 -28 41 -49 l42 -38 -29 -15 c-17 -8 -36 -27 -44
-41 -17 -33 -25 -33 -46 0 -9 14 -30 32 -46 40 l-29 15 48 49 c49 50 63 58 63
39z m300 -14 c7 -14 16 -25 20 -25 3 0 16 -9 28 -20 l22 -21 -47 -44 -47 -45
-32 35 c-17 19 -37 35 -43 35 -6 0 -11 4 -11 10 0 10 81 99 91 100 3 0 12 -11
19 -25z m-239 -373 c-36 -28 -49 -41 -60 -58 -10 -18 -13 -17 -38 12 -16 18
-38 37 -51 43 -22 12 -21 12 25 59 l48 48 46 -45 c42 -41 45 -47 30 -59z m234
88 c3 -11 22 -32 40 -46 l34 -25 -46 -45 -47 -44 -32 35 c-17 19 -37 35 -43
35 -21 0 -11 19 32 64 49 51 53 53 62 26z"/>
<path d="M4453 9629 c-43 -27 -77 -98 -68 -141 17 -80 74 -128 153 -128 72 0
142 71 142 145 0 110 -134 184 -227 124z"/>
<path d="M5060 9643 c-23 -9 -60 -45 -76 -75 -47 -90 27 -208 129 -208 46 0
71 12 118 57 l36 34 17 -26 c97 -147 329 -23 258 137 -28 65 -76 92 -150 86
-51 -5 -60 -9 -93 -47 l-37 -41 -22 27 c-35 44 -71 63 -120 62 -25 0 -52 -3
-60 -6z"/>
<path d="M5912 9630 c-42 -26 -77 -99 -68 -143 29 -143 215 -174 278 -47 66
130 -85 266 -210 190z"/>
<path d="M6810 9643 c-23 -9 -60 -45 -76 -75 -47 -91 27 -208 131 -208 49 0
87 19 121 60 l26 30 45 -47 46 -46 -27 -20 c-32 -23 -66 -86 -66 -122 0 -41
26 -91 59 -116 36 -26 40 -45 11 -54 -11 -3 -27 -19 -37 -36 -22 -36 -28 -36
-60 1 -68 81 -172 80 -236 -1 l-24 -31 -45 45 -45 45 38 35 c63 60 71 129 22
195 -62 83 -171 83 -237 0 l-26 -33 -29 36 c-60 73 -155 79 -219 16 -30 -30
-36 -44 -40 -91 -5 -62 9 -93 60 -134 l28 -24 -41 -37 c-39 -35 -43 -42 -46
-97 -5 -76 18 -117 83 -146 64 -28 104 -18 164 38 l49 45 11 -23 c7 -13 26
-35 42 -49 l31 -26 -32 -22 c-103 -73 -71 -234 52 -265 51 -12 98 4 143 50
l42 44 20 -34 c14 -23 34 -39 66 -51 66 -25 111 -14 161 40 l41 43 32 -38 c57
-69 141 -76 207 -19 71 63 70 159 -4 221 l-39 32 43 41 c54 50 65 95 40 161
-12 32 -28 52 -51 66 l-34 20 44 42 c78 76 70 188 -18 233 l-30 16 37 31 c114
97 62 266 -83 266 -51 0 -91 -20 -123 -61 l-25 -32 -17 26 c-35 55 -123 83
-185 60z m-359 -505 c6 -13 24 -33 40 -46 l28 -23 -45 -44 -44 -44 -43 43 -44
43 41 46 c23 24 44 45 48 46 4 1 13 -9 19 -21z m309 -319 c0 -3 11 -12 25 -19
32 -17 32 -33 -1 -50 -14 -8 -32 -27 -40 -42 l-15 -29 -47 48 -47 48 45 46 45
47 17 -22 c10 -11 18 -24 18 -27z m340 -49 c0 -4 -11 -12 -24 -19 -13 -7 -30
-24 -37 -37 -7 -13 -15 -24 -19 -24 -3 0 -26 19 -51 43 l-45 42 45 45 46 46
42 -45 c24 -25 43 -48 43 -51z"/>
<path d="M8073 9630 c-220 -65 -369 -211 -450 -439 l-27 -76 -1 -465 c0 -422
2 -471 18 -530 65 -230 224 -401 436 -471 96 -31 214 -39 566 -39 460 0 527 9
670 82 147 75 251 195 313 363 l27 70 3 480 c3 426 1 487 -14 545 -64 247
-241 423 -485 484 -56 14 -133 16 -530 15 -420 0 -470 -2 -526 -19z m922 -270
c186 -27 318 -158 345 -345 13 -95 13 -685 -1 -761 -32 -174 -172 -316 -339
-343 -87 -14 -681 -14 -773 0 -177 27 -309 160 -337 339 -13 87 -13 690 1 765
32 171 157 304 321 340 76 16 674 20 783 5z"/>
<path d="M8327 9046 c-64 -32 -92 -59 -123 -122 l-25 -51 3 -255 3 -255 30
-49 c19 -30 49 -60 79 -79 l49 -30 254 -3 c230 -3 257 -1 295 16 62 27 105 68
133 123 25 47 25 53 25 296 0 218 -3 253 -19 288 -27 59 -65 100 -116 124 -42
20 -61 21 -292 21 -240 -1 -250 -1 -296 -24z"/>
<path d="M4465 9051 c-41 -25 -60 -49 -75 -94 -23 -74 35 -164 117 -182 47
-10 95 10 138 56 l37 40 24 -34 c28 -42 99 -73 141 -62 137 34 168 203 51 275
-63 38 -142 21 -192 -42 l-27 -33 -23 28 c-54 67 -130 86 -191 48z"/>
<path d="M3588 8760 c-98 -52 -104 -194 -10 -256 41 -27 119 -24 161 5 43 31
75 101 66 144 -15 69 -85 128 -152 127 -15 -1 -44 -10 -65 -20z"/>
<path d="M5339 8758 c-43 -24 -79 -83 -79 -127 0 -43 35 -109 65 -123 32 -15
31 -24 -5 -55 -61 -51 -75 -114 -41 -182 46 -89 164 -106 234 -33 62 65 59
142 -7 205 l-42 41 41 41 c63 62 68 125 18 193 -47 63 -118 79 -184 40z"/>
<path d="M5935 8766 c-103 -46 -121 -178 -33 -249 l38 -30 -39 -33 c-74 -64
-77 -161 -6 -223 55 -48 127 -52 186 -10 31 22 59 76 59 115 0 40 -36 108 -65
124 -14 7 -25 17 -25 21 0 5 19 26 42 48 41 38 43 42 42 98 0 70 -20 105 -75
134 -44 22 -82 24 -124 5z"/>
<path d="M4485 8478 c-43 -15 -72 -45 -91 -93 -22 -59 -7 -110 47 -159 l41
-38 -31 -19 c-17 -10 -37 -30 -43 -44 -15 -32 -22 -32 -48 5 -63 89 -204 77
-252 -20 -9 -19 -17 -48 -18 -63 0 -39 32 -98 70 -126 l32 -23 -31 -19 c-34
-21 -71 -85 -71 -124 0 -35 35 -101 64 -120 82 -54 179 -27 221 61 26 56 14
115 -36 165 l-40 40 47 46 c40 41 47 45 56 30 18 -33 63 -67 95 -73 153 -29
243 142 131 249 l-39 37 46 47 46 46 30 -36 c88 -106 259 -48 259 88 0 73 -48
132 -123 150 -42 11 -113 -20 -141 -62 l-24 -34 -21 22 c-12 13 -21 26 -21 30
0 11 -84 49 -106 48 -10 0 -32 -5 -49 -11z"/>
<path d="M2430 8183 c-23 -9 -60 -45 -76 -75 -30 -57 -10 -129 49 -180 l32
-27 -36 -30 c-73 -61 -76 -158 -8 -223 21 -20 39 -41 39 -46 0 -5 -11 -14 -25
-20 -30 -14 -65 -80 -65 -124 0 -39 29 -90 65 -114 31 -20 32 -37 1 -53 -31
-17 -66 -81 -66 -120 0 -41 21 -82 60 -114 62 -53 146 -44 201 22 l32 37 47
-46 47 -45 -37 -32 c-48 -41 -67 -99 -51 -152 14 -48 68 -98 116 -107 50 -9
122 20 144 57 20 37 32 36 60 -2 54 -72 155 -76 221 -8 l38 40 48 -46 c49 -48
49 -48 3 -75 -24 -14 -49 -73 -49 -115 0 -46 21 -87 62 -118 l32 -26 -44 -39
c-45 -39 -45 -40 -45 -106 0 -65 1 -67 43 -107 l42 -41 -41 -36 c-34 -31 -42
-45 -46 -84 -8 -66 1 -92 48 -136 l40 -39 -26 -17 c-85 -56 -86 -194 -1 -249
65 -43 166 -21 206 45 40 65 18 162 -45 204 l-26 17 36 36 c42 40 55 68 55
117 0 45 -21 86 -61 117 l-32 25 33 28 c81 73 81 173 -1 237 l-31 24 47 48 47
47 30 -36 c75 -92 228 -59 259 56 17 65 -24 148 -84 171 -7 3 3 18 25 36 20
17 44 51 53 75 22 58 8 107 -47 157 l-39 37 32 23 c17 12 40 42 51 66 27 60
16 105 -36 158 l-41 41 45 44 45 45 41 -41 c52 -52 97 -63 157 -36 83 37 115
118 77 197 -50 104 -179 114 -254 20 l-21 -26 -46 44 -47 44 39 36 c48 46 66
100 50 150 -12 36 -43 74 -76 93 -17 9 -15 13 23 49 56 51 70 101 47 162 -25
65 -77 97 -150 91 -40 -3 -62 -11 -81 -29 -76 -70 -72 -170 8 -233 l33 -26
-33 -26 c-83 -66 -83 -172 -1 -237 l31 -24 -47 -48 -48 -47 -24 31 c-65 82
-172 82 -237 -1 l-26 -33 -30 38 c-18 20 -38 37 -46 37 -25 0 -15 24 21 53 70
56 72 155 3 220 l-41 39 33 26 c103 81 63 245 -64 259 -61 7 -89 -1 -125 -38
-72 -71 -60 -159 29 -233 23 -18 23 -19 4 -32 -96 -68 -106 -164 -25 -241 l38
-36 -46 -44 -46 -44 -21 26 c-33 41 -75 65 -118 65 -45 0 -109 -33 -127 -66
-16 -30 -25 -30 -45 2 -9 14 -30 32 -46 40 l-29 15 44 43 c78 76 72 179 -15
234 l-30 19 35 27 c117 90 60 268 -85 265 -24 0 -50 -3 -58 -6z m274 -847 l29
-23 -31 -18 c-17 -10 -36 -29 -43 -42 -16 -30 -32 -29 -49 3 -8 14 -27 32 -42
40 l-27 14 47 48 47 48 20 -23 c11 -13 33 -34 49 -47z m241 54 c3 -11 22 -32
40 -46 l34 -25 -46 -45 -47 -44 -32 35 c-17 19 -37 35 -43 35 -20 0 -12 15 32
62 48 53 53 55 62 28z m370 -66 c62 -23 115 -8 166 48 l37 41 12 -24 c7 -13
26 -36 43 -50 l30 -25 -32 -23 c-17 -12 -38 -35 -46 -51 -32 -61 -10 -151 46
-191 36 -25 36 -32 3 -49 -14 -8 -33 -28 -41 -44 l-15 -29 -32 36 c-35 40 -83
67 -121 67 -38 0 -103 -37 -124 -70 l-18 -30 -29 33 c-16 18 -38 38 -49 44
-19 11 -18 13 17 46 41 38 58 72 58 119 0 43 -29 98 -62 117 -15 9 -28 19 -28
23 0 3 21 27 47 52 l46 46 23 -34 c15 -22 40 -40 69 -52z m-343 -256 l44 -42
-43 -43 c-24 -24 -47 -43 -52 -43 -4 0 -13 11 -20 24 -7 13 -24 30 -37 37 -13
7 -24 16 -24 20 0 8 72 86 82 88 4 0 27 -18 50 -41z m558 -262 c0 -8 16 -27
36 -43 l35 -28 -44 -47 -45 -46 -28 32 c-16 18 -37 37 -48 43 -17 9 -15 14 25
56 45 46 69 58 69 33z"/>
<path d="M5619 8167 c-66 -44 -85 -123 -46 -191 39 -69 121 -94 193 -60 104
50 106 206 4 259 -44 23 -111 19 -151 -8z"/>
<path d="M6206 8171 c-50 -33 -69 -74 -64 -136 3 -40 11 -62 29 -81 70 -75
170 -72 232 7 l24 31 48 -47 47 -48 -31 -24 c-103 -81 -71 -226 58 -263 88
-25 199 83 173 170 -8 29 -44 90 -52 90 -4 0 -14 6 -24 13 -18 13 -16 17 28
60 l47 47 37 -39 c65 -68 155 -69 216 -1 36 40 56 50 56 29 0 -6 17 -27 37
-46 l38 -34 -33 -25 c-34 -27 -62 -81 -62 -119 0 -93 98 -168 187 -143 123 34
148 198 41 266 l-30 19 35 27 c67 51 82 142 35 208 -31 44 -73 61 -137 56 -50
-5 -59 -9 -92 -47 l-37 -42 -22 31 c-33 46 -74 63 -139 58 -50 -5 -59 -9 -92
-47 l-37 -41 -24 28 c-41 51 -72 65 -135 60 -52 -5 -60 -9 -94 -47 l-37 -42
-21 22 c-12 13 -21 26 -21 30 0 4 -15 14 -34 23 -46 22 -114 20 -150 -3z"/>
<path d="M4765 7890 c-44 -18 -78 -67 -83 -121 -6 -62 13 -103 61 -136 51 -34
86 -37 137 -11 112 57 121 195 18 258 -34 21 -97 25 -133 10z"/>
<path d="M5332 7880 c-91 -56 -95 -188 -7 -246 27 -18 34 -44 11 -44 -8 0 -28
-17 -46 -37 l-30 -38 -26 33 c-50 63 -129 80 -192 42 -90 -55 -96 -180 -11
-248 l29 -24 -47 -45 -46 -46 -20 27 c-24 33 -87 66 -124 66 -76 -2 -143 -71
-143 -147 0 -148 168 -202 266 -86 l31 37 16 -30 c9 -17 27 -39 41 -48 33 -21
33 -28 -3 -49 -35 -20 -61 -72 -61 -122 0 -47 13 -73 56 -110 l35 -31 -44 -46
-44 -45 -36 38 c-58 61 -134 70 -198 25 -78 -54 -79 -175 -3 -235 60 -47 152
-36 202 25 l30 36 47 -47 47 -48 -31 -24 c-85 -67 -80 -186 11 -244 26 -15 45
-19 86 -16 46 3 58 9 96 46 l43 42 17 -26 c42 -64 137 -85 204 -43 35 21 72
85 72 123 0 38 -37 102 -72 123 -67 42 -162 21 -204 -43 l-17 -27 -32 34 c-17
18 -40 38 -50 44 -17 9 -15 14 27 55 25 26 47 58 51 76 12 60 -21 128 -78 161
-19 10 -18 13 17 42 21 17 44 50 54 75 16 43 16 47 -1 90 -10 27 -31 56 -51
72 l-34 26 39 36 c23 21 44 53 51 77 11 36 10 47 -8 86 -11 25 -34 56 -50 68
l-30 23 46 46 46 46 41 -41 c53 -52 98 -63 158 -36 24 11 54 33 66 50 l21 30
48 -46 48 -46 -42 -41 c-70 -67 -71 -140 -3 -208 21 -22 39 -41 39 -44 0 -2
-14 -16 -31 -31 -35 -29 -59 -77 -59 -118 0 -65 81 -144 148 -144 37 0 86 25
114 59 15 17 29 31 33 31 3 0 19 -15 36 -34 61 -70 154 -72 219 -4 l39 39 46
-46 c43 -44 45 -48 28 -61 -10 -7 -21 -14 -25 -14 -3 0 -16 -16 -28 -36 -18
-29 -22 -46 -18 -92 5 -51 9 -60 46 -93 l42 -37 -47 -46 -47 -47 -24 31 c-48
61 -134 79 -198 40 -32 -20 -74 -90 -74 -123 0 -35 33 -97 66 -122 l34 -26
-48 -45 -47 -45 -21 26 c-52 65 -138 85 -198 45 -37 -24 -76 -86 -76 -121 0
-43 27 -95 66 -126 l37 -30 -31 -18 c-17 -10 -36 -29 -43 -42 -16 -30 -25 -29
-56 7 -51 62 -114 75 -183 40 -45 -23 -80 -80 -80 -131 0 -39 35 -103 66 -120
13 -7 24 -18 24 -24 0 -6 -11 -17 -24 -24 -31 -17 -66 -81 -66 -120 0 -41 32
-103 63 -124 83 -54 200 -12 227 84 16 53 2 98 -44 144 l-41 41 45 44 45 45
42 -42 c47 -47 93 -61 146 -44 57 19 107 86 107 143 0 37 -38 103 -70 121
l-30 18 47 48 48 47 30 -33 c69 -76 150 -78 223 -6 24 24 45 43 46 41 1 -2 12
-17 24 -35 51 -72 155 -77 221 -9 61 63 53 158 -16 215 l-35 29 47 47 47 47
29 -35 c57 -69 152 -77 215 -16 63 61 65 144 3 207 -59 60 -153 57 -211 -8
l-37 -41 -46 47 -47 47 31 24 c40 32 61 72 61 119 0 44 -34 107 -66 125 -31
16 -30 22 10 53 60 45 73 141 27 205 -12 16 -41 37 -66 47 -60 23 -125 6 -163
-43 -32 -39 -44 -41 -61 -9 -7 13 -24 30 -37 37 -32 16 -30 24 10 60 42 36 61
87 51 137 -8 44 -38 88 -65 97 -11 4 -20 10 -20 14 0 9 90 104 94 99 1 -1 12
-17 24 -35 14 -19 40 -38 67 -49 58 -22 106 -9 154 40 28 29 35 45 38 88 11
150 -162 214 -261 97 l-27 -32 -33 37 c-19 20 -39 36 -45 36 -22 0 -10 25 24
53 81 64 67 194 -25 242 -41 21 -106 19 -146 -5 -33 -21 -74 -90 -74 -126 1
-35 37 -101 69 -123 l30 -22 -47 -45 -47 -45 -25 30 c-68 79 -190 79 -237 0
-21 -35 -26 -36 -50 -6 -10 13 -30 31 -46 41 l-27 19 39 36 c54 51 70 105 47
166 -33 86 -136 122 -214 75z m559 -607 l-45 -43 -32 35 c-17 19 -37 35 -43
35 -20 0 -12 16 32 61 l42 45 45 -45 46 -46 -45 -42z m0 -205 l44 -42 -45 -46
-45 -45 -42 44 c-24 25 -43 46 -43 47 0 4 75 81 81 83 3 0 25 -18 50 -41z
m268 -852 c7 -13 26 -33 42 -45 l29 -21 -46 -44 -45 -44 -44 44 -45 44 43 44
c23 24 45 45 48 45 3 1 11 -10 18 -23z"/>
<path d="M4464 7591 c-42 -26 -70 -64 -78 -107 -17 -87 81 -185 169 -168 76
14 134 96 122 170 -16 100 -129 156 -213 105z"/>
<path d="M6792 7590 c-91 -56 -95 -188 -7 -246 32 -21 32 -38 0 -52 -14 -7
-30 -23 -37 -37 -15 -33 -29 -32 -57 6 -82 110 -261 49 -261 -89 0 -97 81
-164 177 -146 25 5 51 21 79 51 l43 44 15 -28 c8 -16 26 -35 40 -43 32 -17 33
-33 2 -49 -31 -17 -66 -81 -66 -120 0 -41 32 -103 63 -124 83 -54 200 -12 227
84 16 54 2 98 -45 143 l-41 41 46 46 46 46 32 -38 c62 -74 158 -75 221 -4 17
19 32 35 34 35 2 0 24 -19 49 -43 l46 -43 -37 -31 c-77 -64 -77 -156 0 -227
l41 -38 -29 -18 c-16 -9 -37 -29 -47 -44 l-18 -28 -36 40 c-45 48 -95 65 -149
50 -66 -17 -113 -79 -113 -145 0 -41 40 -103 80 -124 65 -35 157 -14 189 43
20 34 34 35 50 4 7 -13 27 -34 43 -46 l30 -22 -35 -24 c-23 -15 -41 -40 -53
-69 -23 -61 -7 -115 48 -167 l39 -36 -30 -18 c-16 -9 -35 -28 -42 -41 -16 -29
-25 -29 -45 2 -41 63 -136 84 -201 44 -37 -23 -73 -84 -73 -124 0 -41 26 -91
59 -116 37 -27 39 -41 7 -58 -13 -7 -30 -24 -37 -37 -16 -31 -33 -30 -53 1
-24 36 -75 65 -114 65 -44 0 -110 -35 -124 -65 -14 -32 -31 -32 -52 0 -57 86
-185 84 -243 -4 -43 -64 -23 -163 42 -205 30 -20 32 -33 5 -41 -11 -4 -31 -23
-45 -43 -45 -66 -29 -156 35 -202 36 -26 37 -33 7 -49 -13 -7 -32 -26 -41 -43
l-18 -30 -39 41 c-33 34 -87 61 -123 61 -28 0 -98 -46 -117 -76 -31 -51 -24
-133 16 -174 63 -65 155 -64 218 2 l39 41 29 -36 c74 -90 209 -66 253 44 26
65 -3 139 -69 177 -19 10 -17 13 21 49 75 69 77 155 4 223 l-37 35 48 48 48
47 15 -29 c9 -17 34 -38 61 -51 65 -31 115 -21 169 35 l42 43 32 -38 c56 -67
139 -76 203 -23 34 29 59 78 59 115 0 36 -38 102 -70 121 l-30 18 48 48 47 49
30 -34 c38 -43 96 -67 139 -58 45 9 96 51 113 92 26 63 -6 161 -57 177 -29 9
-25 26 15 58 70 56 72 150 4 218 l-40 40 40 39 c68 66 66 160 -6 219 l-36 30
47 47 47 47 30 -36 c68 -83 198 -68 243 27 31 66 11 150 -45 183 -33 20 -37
39 -10 48 11 3 31 22 46 41 l28 36 19 -30 c50 -80 154 -93 222 -28 65 60 65
149 2 212 -61 61 -160 54 -217 -15 l-30 -36 -27 32 c-71 83 -170 83 -236 1
l-26 -33 -28 32 c-71 82 -168 83 -235 3 -14 -16 -29 -30 -32 -30 -3 0 -18 14
-32 30 -32 39 -73 60 -114 60 -39 0 -103 -35 -120 -66 -7 -13 -16 -24 -20 -24
-5 0 -29 20 -53 45 l-45 44 31 22 c41 29 72 100 64 145 -19 98 -140 155 -224
104z m850 -522 l44 -42 -43 -43 c-24 -24 -47 -43 -52 -43 -4 0 -13 11 -20 24
-7 13 -24 30 -37 37 -13 7 -24 16 -24 20 0 8 72 86 82 88 4 0 27 -18 50 -41z"/>
<path d="M666 7296 c-103 -62 -99 -204 9 -256 65 -31 115 -21 169 35 l42 43
32 -39 c62 -74 158 -75 221 -4 17 19 33 35 35 35 3 0 25 -19 49 -43 l45 -43
-38 -31 c-70 -59 -75 -156 -12 -216 65 -62 149 -60 213 5 l40 41 30 -36 c56
-68 149 -74 213 -14 81 77 49 211 -60 247 -52 17 -117 -3 -152 -47 -32 -39
-44 -41 -61 -9 -7 13 -24 30 -37 37 -32 16 -30 24 10 60 81 71 68 192 -25 240
-68 34 -131 20 -182 -41 -31 -36 -40 -37 -56 -6 -17 31 -81 66 -121 66 -40 0
-104 -35 -121 -66 -16 -31 -33 -30 -53 1 -42 64 -123 82 -190 41z"/>
<path d="M1840 7303 c-100 -52 -108 -196 -12 -259 40 -27 119 -24 160 5 85 60
85 180 1 244 -37 27 -105 31 -149 10z"/>
<path d="M8844 7301 c-96 -58 -109 -174 -28 -239 19 -15 34 -31 34 -35 0 -4
-15 -21 -33 -37 -45 -39 -64 -97 -49 -149 41 -135 228 -147 277 -17 24 63 14
110 -36 159 -21 22 -39 41 -39 42 0 4 82 85 86 85 2 0 22 -18 43 -39 69 -69
153 -63 225 15 32 35 34 36 41 15 3 -11 22 -33 41 -47 41 -31 42 -37 9 -52
-63 -29 -86 -139 -42 -202 12 -18 38 -41 57 -51 131 -70 269 89 185 213 -14
20 -34 39 -45 43 -28 9 -25 20 10 45 89 63 77 204 -20 252 -65 32 -137 14
-184 -44 l-26 -33 -28 32 c-71 82 -168 83 -235 3 -30 -35 -43 -38 -52 -10 -9
28 -85 70 -126 70 -19 0 -48 -9 -65 -19z"/>
<path d="M93 7010 c-110 -49 -112 -208 -3 -262 45 -23 87 -23 130 1 107 56
107 204 0 259 -54 27 -73 27 -127 2z"/>
<path d="M4475 7015 c-68 -30 -105 -107 -85 -172 25 -76 95 -122 168 -108 79
15 129 83 118 162 -8 58 -29 88 -80 113 -48 23 -78 24 -121 5z"/>
<path d="M405 6729 c-50 -14 -96 -70 -102 -123 -7 -58 10 -99 56 -137 l36 -29
-33 -26 c-83 -66 -83 -172 0 -238 l33 -26 -33 -26 c-61 -48 -79 -122 -46 -186
65 -125 235 -104 274 33 14 48 0 89 -45 135 l-43 42 48 47 47 46 17 -26 c42
-64 137 -85 204 -43 33 21 71 84 72 120 0 38 -34 100 -67 122 l-34 24 40 37
c71 66 77 146 17 209 -64 68 -159 65 -221 -6 l-33 -40 -17 26 c-34 52 -113 82
-170 65z m229 -244 l45 -45 -43 -44 -44 -44 -29 32 c-15 18 -37 37 -47 43 -18
10 -16 14 25 55 24 25 45 46 46 46 1 1 23 -18 47 -43z"/>
<path d="M1864 6729 c-35 -10 -82 -53 -95 -87 -39 -101 43 -210 150 -199 138
14 183 196 66 267 -39 24 -83 31 -121 19z"/>
<path d="M7999 6731 c-97 -30 -140 -141 -86 -222 81 -121 271 -64 269 81 -1
92 -99 166 -183 141z"/>
<path d="M9155 6725 c-135 -48 -131 -235 5 -276 78 -23 159 18 181 91 35 117
-73 226 -186 185z"/>
<path d="M1243 6419 c-33 -21 -73 -90 -73 -125 1 -38 38 -101 72 -122 67 -41
162 -21 204 43 21 32 26 31 47 -4 34 -58 133 -79 195 -41 95 58 95 192 0 250
-69 42 -164 16 -207 -57 -9 -16 -13 -15 -37 15 -14 18 -39 39 -54 47 -41 21
-109 19 -147 -6z"/>
<path d="M2122 6420 c-95 -58 -95 -192 0 -250 62 -38 137 -24 192 36 l33 36
22 -31 c29 -40 70 -61 121 -61 86 0 144 59 144 145 0 86 -58 145 -144 145 -51
0 -91 -20 -123 -61 l-25 -32 -17 26 c-42 65 -138 87 -203 47z"/>
<path d="M8539 6417 c-39 -26 -69 -79 -69 -122 0 -139 189 -198 270 -85 26 37
33 37 48 5 29 -63 139 -86 202 -42 48 33 72 82 66 135 -11 81 -67 132 -146
132 -51 0 -92 -21 -121 -61 l-22 -32 -22 27 c-55 69 -141 87 -206 43z"/>
<path d="M952 6129 c-37 -24 -72 -85 -72 -124 0 -41 26 -91 59 -116 37 -27 39
-41 7 -58 -13 -7 -30 -24 -37 -37 -16 -31 -33 -30 -53 1 -42 64 -122 81 -190
42 -104 -59 -98 -205 11 -258 62 -30 114 -19 166 35 l41 42 43 -43 c24 -24 43
-46 43 -49 0 -3 -14 -17 -30 -31 -39 -32 -60 -73 -60 -114 0 -39 35 -103 66
-120 31 -16 30 -25 -7 -57 -78 -65 -76 -165 3 -233 l31 -26 -47 -46 -46 -46
-16 24 c-30 46 -79 68 -142 63 -51 -5 -60 -9 -93 -47 l-37 -41 -24 28 c-41 51
-72 65 -134 60 -47 -4 -61 -10 -91 -40 -63 -63 -57 -159 14 -217 l35 -29 -47
-47 -48 -47 -24 31 c-82 105 -246 66 -260 -63 -7 -61 1 -89 38 -125 64 -64
149 -60 213 10 l38 40 35 -40 c63 -74 151 -74 220 -2 l35 38 42 -42 c54 -54
98 -64 161 -36 48 21 81 64 91 118 8 44 -28 118 -68 139 l-29 15 48 49 48 49
30 -34 c38 -43 64 -55 115 -55 51 0 92 20 120 60 26 37 31 37 53 1 32 -55 125
-78 187 -46 15 8 40 29 54 47 24 30 28 31 37 15 56 -97 182 -104 253 -15 l26
33 26 -33 c65 -82 165 -84 236 -3 l28 31 46 -47 46 -46 -31 -24 c-82 -64 -80
-184 4 -239 27 -17 34 -44 12 -44 -16 0 -57 -42 -57 -58 0 -21 -27 -13 -44 13
-41 62 -131 83 -194 45 -106 -65 -93 -221 23 -266 61 -23 115 -7 167 48 l36
39 18 -31 c19 -31 85 -70 120 -70 35 1 101 37 123 68 l22 31 42 -43 c71 -71
143 -71 212 -1 l40 42 41 -42 c70 -72 158 -69 219 8 l28 35 47 -47 47 -46 -37
-32 c-69 -60 -71 -156 -4 -219 62 -59 157 -51 215 18 l26 31 40 -40 c70 -70
149 -68 219 4 l43 44 15 -29 c18 -36 52 -58 99 -67 52 -10 101 10 140 57 l34
41 18 -31 c10 -17 29 -36 42 -43 30 -16 29 -25 -7 -56 -80 -67 -79 -165 2
-234 l31 -26 -47 -46 -46 -46 -16 24 c-30 46 -79 68 -142 63 -51 -5 -60 -9
-93 -47 l-37 -41 -24 28 c-41 51 -72 65 -135 60 -51 -4 -60 -9 -95 -47 l-40
-42 -37 42 c-32 37 -43 42 -90 47 -66 6 -111 -15 -143 -66 -43 -70 -20 -160
52 -201 69 -39 143 -23 194 41 l26 33 26 -33 c66 -83 172 -83 237 -1 l24 31
48 -47 47 -48 -31 -24 c-93 -73 -78 -197 31 -251 41 -20 51 -22 87 -12 26 7
55 26 78 49 l36 39 36 -38 c86 -90 216 -60 252 58 17 57 -9 125 -58 155 l-35
20 41 37 c23 21 41 43 41 49 0 21 25 11 41 -17 44 -78 183 -81 236 -6 47 67
40 137 -19 196 l-40 40 36 33 c20 18 36 38 36 44 0 21 20 11 51 -23 52 -60
135 -71 198 -27 33 24 61 77 61 117 0 40 -36 108 -65 124 -32 17 -31 31 3 51
33 19 62 74 62 119 0 45 -29 100 -62 119 -15 9 -28 19 -28 23 0 3 21 27 47 52
l46 46 23 -34 c15 -22 40 -40 69 -52 62 -23 115 -8 166 48 l37 41 17 -32 c21
-41 93 -76 139 -67 53 10 96 43 117 92 24 53 19 93 -18 142 -62 83 -171 83
-236 1 l-24 -31 -45 45 -45 45 40 40 c35 35 41 47 44 94 3 41 -1 60 -16 86
-56 88 -167 96 -240 18 -18 -19 -26 -41 -29 -81 -5 -61 9 -92 59 -133 l28 -23
-46 -46 -46 -46 -26 31 c-85 100 -221 73 -261 -51 -16 -51 8 -117 56 -154 l34
-26 -38 -33 c-76 -65 -76 -166 -1 -226 l38 -30 -47 -48 -47 -47 -32 37 c-63
73 -164 73 -226 0 l-31 -37 -46 46 -47 46 38 33 c74 64 76 146 5 216 l-42 42
42 41 c54 52 65 104 35 166 -11 23 -34 50 -51 60 l-30 18 48 48 47 48 35 -37
c20 -22 52 -43 77 -50 38 -12 46 -11 89 11 66 33 89 68 88 132 0 60 -20 97
-69 127 -64 39 -162 17 -195 -45 -17 -31 -25 -31 -46 0 -25 38 -76 65 -123 65
-51 0 -91 -20 -124 -61 l-24 -31 -25 30 c-13 16 -35 35 -47 41 -22 12 -22 13
22 60 55 59 66 103 39 164 -28 63 -77 91 -148 85 -138 -12 -183 -174 -72 -262
l33 -26 -33 -26 c-82 -65 -84 -165 -3 -236 l31 -28 -47 -46 -46 -46 -24 31
c-65 82 -171 82 -237 -1 l-27 -33 -23 28 c-71 87 -170 90 -240 6 l-27 -32 -33
37 c-19 20 -39 36 -45 36 -21 0 -11 26 20 49 109 80 49 261 -86 261 -75 0
-136 -52 -151 -127 -8 -41 25 -114 64 -142 l31 -22 -46 -44 c-26 -25 -50 -45
-53 -45 -4 0 -12 11 -19 24 -17 31 -81 66 -121 66 -40 0 -104 -35 -121 -66 -7
-13 -16 -24 -20 -24 -5 0 -29 20 -53 45 l-45 44 31 22 c31 22 67 88 68 123 0
36 -41 106 -72 122 l-30 16 41 40 c56 56 69 103 47 163 -12 29 -30 54 -52 69
l-34 23 46 46 c25 26 49 47 52 47 4 0 14 -13 23 -28 23 -41 81 -66 135 -58 52
7 75 20 100 57 18 27 44 39 44 20 0 -21 65 -70 101 -76 58 -10 97 3 140 47
l38 40 38 -40 c66 -70 163 -67 222 6 l31 37 31 -37 c90 -110 259 -49 259 92 0
144 -190 197 -270 75 l-18 -28 -19 23 c-59 72 -111 91 -179 65 -40 -15 -76
-47 -87 -78 -3 -7 -19 5 -40 29 -68 78 -166 79 -230 3 l-31 -37 -43 45 c-24
24 -43 46 -43 49 0 2 15 18 34 35 65 57 71 140 15 204 -63 72 -158 70 -222 -5
l-34 -40 -27 35 c-29 37 -81 65 -123 65 -37 0 -97 -37 -118 -72 l-18 -31 -31
36 c-58 67 -118 82 -185 47 -98 -49 -110 -187 -23 -249 66 -46 158 -33 205 31
21 28 47 38 47 17 0 -6 16 -26 36 -45 l37 -33 -32 -27 c-41 -34 -61 -74 -61
-119 0 -47 13 -73 57 -111 l35 -31 -45 -46 -46 -46 -23 28 c-41 50 -72 64
-135 59 -52 -5 -60 -9 -94 -47 l-38 -42 -45 46 -46 46 39 37 c88 84 54 221
-62 253 -64 17 -150 -25 -170 -84 -3 -11 -97 79 -97 94 0 4 9 10 20 14 11 3
28 19 39 34 53 74 27 182 -53 220 -23 12 -52 21 -63 21 -35 0 -89 -28 -116
-60 -14 -16 -28 -30 -30 -30 -6 0 -87 81 -87 87 0 2 14 16 31 31 34 28 59 77
59 114 0 37 -38 102 -70 121 l-30 18 43 43 c61 59 72 128 29 193 -39 61 -137
82 -200 42z m267 -810 c22 -23 41 -42 41 -43 0 -2 -19 -22 -42 -47 l-43 -44
-42 43 c-24 23 -43 44 -43 46 0 6 74 83 81 85 4 0 25 -18 48 -40z m1141 30 c0
-6 16 -26 35 -43 l35 -32 -43 -46 -44 -45 -34 37 c-19 21 -41 39 -49 42 -10 3
-2 17 30 50 45 45 70 58 70 37z m-1160 -304 c7 -14 16 -25 20 -25 3 0 16 -10
29 -21 l23 -21 -31 -19 c-16 -10 -35 -28 -42 -41 -6 -13 -13 -25 -15 -27 -2
-2 -24 18 -49 44 l-46 47 35 33 c20 18 36 38 36 44 0 20 26 11 40 -14z m316
-21 c41 -41 44 -48 29 -57 -22 -12 -50 -40 -62 -62 -9 -15 -16 -12 -57 29
l-46 47 42 44 c24 24 44 44 45 44 1 1 23 -20 49 -45z m-881 -378 l-44 -45 -24
28 c-13 16 -34 34 -46 41 -23 12 -23 12 24 60 l47 48 44 -44 43 -44 -44 -44z
m3255 -255 c0 -4 -11 -13 -25 -19 -14 -7 -30 -23 -37 -37 -6 -14 -15 -25 -19
-25 -5 0 -28 19 -51 43 l-43 42 45 45 44 45 43 -43 c24 -23 43 -46 43 -51z
m-604 -266 l25 -16 -47 -45 -46 -45 -33 35 c-18 20 -38 36 -44 36 -21 0 -11
18 36 64 l47 46 18 -29 c11 -16 30 -37 44 -46z m283 8 c19 -18 33 -34 30 -37
-2 -2 -14 -9 -26 -15 -13 -6 -30 -25 -38 -41 l-16 -30 -47 47 -48 48 45 46
c40 41 47 45 56 31 6 -9 25 -31 44 -49z m321 -33 c0 -4 -10 -12 -23 -19 -13
-7 -31 -26 -41 -42 l-17 -29 -47 47 -47 48 45 45 45 46 42 -45 c24 -25 43 -48
43 -51z m233 -519 c10 -17 26 -33 37 -36 29 -9 25 -19 -25 -69 l-45 -45 -17
26 c-9 14 -30 33 -45 43 l-28 17 42 45 c24 25 48 46 53 47 6 0 19 -12 28 -28z
m-303 -275 c0 -8 16 -28 36 -44 l36 -30 -45 -45 -45 -45 -29 32 c-16 17 -37
36 -47 41 -16 9 -14 15 26 56 44 48 68 60 68 35z"/>
<path d="M1832 6130 c-69 -42 -93 -138 -52 -206 21 -33 90 -74 125 -74 36 0
104 41 126 77 78 125 -73 280 -199 203z"/>
<path d="M2725 6140 c-48 -20 -95 -90 -95 -140 0 -33 37 -96 69 -120 l30 -21
-43 -42 c-53 -50 -66 -97 -43 -154 61 -155 283 -115 282 51 -1 57 -29 110 -65
121 -29 9 -25 28 11 54 82 60 73 186 -16 241 -33 21 -94 26 -130 10z"/>
<path d="M3869 6127 c-88 -58 -90 -186 -4 -243 31 -20 32 -37 1 -53 -31 -17
-66 -81 -66 -120 0 -41 21 -82 60 -114 16 -14 30 -29 30 -32 0 -3 -14 -18 -30
-32 -38 -32 -60 -73 -60 -113 0 -42 35 -108 65 -122 32 -15 31 -24 -5 -55 -63
-52 -76 -119 -37 -187 52 -92 170 -100 239 -17 26 30 48 40 48 22 0 -23 62
-70 100 -76 60 -10 98 3 142 48 36 37 41 40 50 23 6 -10 19 -25 30 -35 52 -42
52 -43 19 -63 -41 -26 -75 -98 -66 -140 17 -79 74 -128 150 -128 135 0 194
171 89 258 l-36 30 46 46 47 46 37 -39 c65 -68 162 -66 221 6 l29 36 39 -41
c86 -90 217 -55 254 68 26 87 -73 191 -168 174 -26 -5 -51 -20 -79 -49 l-42
-43 -28 32 c-16 18 -38 37 -49 44 -19 11 -18 13 17 44 46 42 58 66 58 120 0
49 -36 112 -70 123 -27 9 -25 20 9 44 88 63 78 205 -19 253 -160 81 -295 -149
-149 -253 l31 -22 -35 -31 c-45 -39 -57 -64 -57 -116 0 -51 20 -92 60 -120 37
-26 37 -33 5 -50 -14 -7 -34 -27 -44 -43 l-19 -30 -18 23 c-37 45 -59 61 -98
71 -52 14 -116 -10 -152 -56 l-25 -33 -45 44 c-24 25 -44 47 -44 50 0 2 16 18
35 35 45 40 62 95 46 148 -6 22 -27 53 -46 70 -19 17 -35 32 -35 35 0 2 18 21
39 43 50 50 60 96 36 160 -11 29 -28 51 -46 62 -37 20 -36 32 2 60 82 60 73
186 -16 241 -61 38 -158 17 -192 -41 -21 -36 -28 -36 -49 -3 -40 61 -144 82
-205 41z m295 -251 l29 -23 -31 -18 c-17 -10 -36 -29 -43 -42 -16 -30 -32 -29
-49 3 -8 14 -27 32 -42 40 l-28 15 47 48 48 48 20 -24 c11 -13 33 -34 49 -47z
m16 -311 c0 -1 -19 -21 -42 -46 l-42 -44 -46 45 -45 45 45 45 45 45 43 -44
c23 -25 42 -45 42 -46z m-61 -229 c7 -13 24 -30 37 -37 13 -7 24 -15 24 -19 0
-3 -19 -27 -43 -51 l-43 -45 -42 43 c-23 24 -42 46 -42 47 0 9 76 83 86 85 6
0 16 -10 23 -23z"/>
<path d="M8252 6130 c-118 -72 -80 -250 58 -275 85 -15 181 84 164 170 -18
100 -137 156 -222 105z"/>
<path d="M9135 6131 c-114 -70 -103 -219 19 -266 61 -24 113 -8 161 48 34 39
37 41 47 23 6 -11 27 -34 45 -51 l35 -32 -27 -17 c-83 -55 -87 -187 -7 -244
97 -70 232 0 232 119 0 50 -26 99 -65 125 l-26 17 42 43 c37 38 43 50 46 96
11 151 -166 216 -261 96 l-26 -33 -26 33 c-49 62 -129 80 -189 43z"/>
<path d="M85 5841 c-51 -31 -68 -58 -73 -115 -5 -62 13 -104 56 -135 98 -69
232 3 232 125 0 106 -127 180 -215 125z"/>
<path d="M7675 5841 c-57 -35 -79 -75 -77 -138 2 -44 25 -87 61 -112 l30 -22
-45 -44 c-24 -25 -48 -45 -53 -45 -4 0 -14 11 -21 25 -14 27 -83 65 -117 65
-59 0 -121 -49 -144 -112 -26 -74 34 -168 116 -184 50 -9 122 20 144 57 9 16
19 29 23 29 9 0 102 -90 97 -93 -2 -2 -16 -11 -31 -20 -74 -46 -81 -166 -13
-226 66 -57 159 -51 213 15 l30 36 46 -46 45 -46 -41 -38 c-37 -35 -42 -45
-45 -93 -3 -42 0 -61 16 -87 58 -92 177 -96 245 -10 l26 33 29 -36 c59 -71
154 -79 217 -18 71 69 63 173 -17 226 -33 22 -47 25 -96 21 -52 -5 -60 -9 -94
-46 l-36 -41 -30 32 c-17 17 -39 37 -49 43 -17 10 -15 14 23 50 70 67 75 150
12 213 -68 69 -176 57 -229 -25 l-18 -27 -19 23 c-29 36 -43 49 -61 59 -15 9
-12 14 20 44 41 38 58 72 58 119 0 43 -29 98 -62 117 -35 20 -35 32 1 54 34
20 61 72 61 119 0 106 -128 183 -215 129z"/>
<path d="M8570 5559 c-32 -13 -68 -47 -86 -81 -36 -68 1 -160 77 -192 64 -26
111 -16 162 35 22 21 41 39 42 39 6 0 85 -83 85 -89 0 -3 -15 -18 -33 -32
-121 -97 -21 -288 134 -254 17 4 48 25 69 46 l38 39 46 -47 46 -46 -25 -17
c-86 -56 -93 -164 -15 -237 l39 -37 -39 -34 c-74 -62 -72 -163 4 -226 l34 -28
-46 -45 -47 -44 -25 30 c-68 80 -167 81 -233 1 -53 -63 -42 -149 25 -202 l36
-30 -46 -44 c-25 -24 -46 -44 -48 -44 -1 0 -19 18 -41 39 -68 68 -141 67 -208
-3 l-41 -42 -46 48 -46 48 30 21 c40 29 72 100 63 142 -9 41 -48 93 -85 112
-59 30 -139 10 -184 -47 l-26 -33 -26 33 c-50 63 -129 80 -192 42 -106 -65
-93 -221 23 -266 61 -23 115 -7 167 48 l37 40 14 -29 c9 -16 27 -35 41 -43 34
-17 33 -32 -3 -53 -33 -19 -61 -72 -61 -115 0 -46 17 -81 55 -117 l35 -31 -45
-47 -44 -46 -21 28 c-21 31 -93 71 -125 71 -35 0 -104 -41 -125 -74 -24 -40
-26 -105 -5 -146 48 -92 178 -106 242 -25 29 36 53 46 53 21 0 -22 63 -66 103
-73 49 -8 101 12 136 53 31 34 51 44 51 23 0 -6 17 -27 37 -46 l38 -34 -33
-25 c-39 -31 -62 -73 -62 -114 0 -40 32 -103 66 -127 l27 -20 -47 -46 -46 -46
-22 29 c-41 56 -127 77 -188 45 -15 -8 -40 -29 -54 -47 l-26 -33 -26 33 c-63
79 -163 84 -232 9 -46 -49 -41 -146 10 -196 65 -64 142 -61 213 9 l41 40 23
-31 c13 -17 43 -40 67 -50 58 -26 111 -13 161 40 l36 37 44 -43 c23 -24 43
-47 43 -52 0 -4 -11 -13 -25 -19 -30 -14 -65 -80 -65 -124 0 -39 29 -90 65
-114 31 -20 32 -37 1 -53 -13 -7 -30 -24 -37 -37 -16 -31 -33 -30 -53 1 -24
36 -75 65 -114 65 -44 0 -110 -35 -124 -65 -15 -33 -29 -31 -56 5 -24 32 -79
60 -117 60 -38 0 -92 -28 -119 -62 l-26 -33 -28 32 c-69 80 -175 82 -233 4
-28 -37 -42 -39 -57 -6 -14 30 -80 65 -122 65 -40 0 -81 -22 -113 -60 -14 -16
-27 -30 -30 -30 -2 0 -24 19 -48 43 l-45 43 42 40 c54 53 65 102 36 168 -13
29 -31 50 -52 61 l-31 16 44 43 c78 76 71 188 -15 232 l-29 15 51 51 c48 47
53 50 63 33 50 -89 168 -100 239 -22 37 39 39 40 53 21 8 -10 15 -22 15 -25 1
-15 82 -49 117 -49 101 0 175 120 129 208 -27 52 -62 75 -120 80 -44 3 -62 0
-90 -18 -20 -12 -36 -25 -36 -28 0 -4 -7 -15 -14 -25 -13 -17 -17 -15 -61 28
l-46 46 40 39 c64 63 66 147 4 212 -60 63 -157 58 -216 -12 l-31 -38 -43 45
c-24 24 -43 46 -43 49 0 2 15 18 34 35 63 55 71 138 19 199 -68 82 -161 80
-231 -5 l-29 -36 -28 37 c-29 38 -77 64 -121 64 -37 0 -98 -37 -119 -72 l-18
-31 -31 36 c-35 41 -83 67 -121 67 -39 0 -103 -37 -124 -71 l-19 -31 -23 32
c-27 36 -86 70 -122 70 -40 0 -94 -27 -121 -62 l-25 -32 -36 37 c-20 20 -40
37 -45 37 -19 0 -9 22 21 48 35 29 59 77 59 118 0 39 -30 95 -62 113 -36 20
-35 32 3 60 57 42 74 118 40 181 -55 105 -198 107 -260 3 -10 -17 -13 -16 -35
10 -57 69 -136 87 -203 46 -36 -23 -73 -84 -73 -122 0 -38 27 -93 55 -116 71
-55 142 -47 209 23 29 31 40 37 44 26 3 -8 22 -31 43 -50 l37 -35 -39 -33
c-53 -45 -68 -96 -45 -157 11 -26 32 -56 51 -71 l34 -25 -46 -45 c-26 -24 -48
-44 -50 -44 -3 0 -16 14 -30 30 -72 86 -175 77 -240 -19 -39 -58 -24 -133 36
-183 17 -15 31 -30 31 -33 0 -3 -14 -18 -31 -33 -35 -29 -59 -77 -59 -119 0
-33 32 -90 68 -119 l25 -20 -46 -47 -46 -46 -22 30 c-32 45 -73 62 -138 57
-49 -5 -59 -9 -92 -46 l-36 -41 -29 33 c-16 18 -38 37 -48 43 -18 10 -17 13
21 49 24 23 46 56 53 80 11 36 10 47 -8 87 -36 81 -120 115 -194 78 -52 -26
-78 -60 -85 -111 -8 -58 4 -90 49 -132 l40 -37 -31 -27 c-41 -34 -61 -74 -61
-121 0 -75 68 -143 143 -143 46 0 71 12 118 56 l35 34 23 -31 c58 -78 192 -77
238 2 22 36 34 36 54 1 32 -56 119 -77 185 -46 93 44 109 159 32 236 l-40 40
35 32 c71 65 72 167 2 223 -19 16 -35 31 -35 34 0 9 80 89 89 89 3 0 18 -16
34 -35 56 -70 158 -69 223 2 l32 35 40 -40 c67 -67 148 -67 213 0 l37 39 48
-46 c49 -48 49 -48 3 -75 -24 -14 -49 -73 -49 -115 0 -47 13 -73 57 -111 l35
-31 -42 -40 c-39 -36 -43 -45 -47 -94 -13 -169 199 -221 275 -67 20 40 22 51
13 86 -11 40 -42 80 -77 100 -18 10 -17 13 17 41 51 42 73 100 58 153 -10 40
-50 90 -79 100 -10 3 0 19 37 56 l51 51 20 -33 c14 -23 35 -39 66 -51 64 -24
111 -14 158 36 20 21 41 39 46 39 5 0 14 -11 21 -24 7 -13 24 -30 37 -37 31
-16 30 -25 -6 -56 -80 -67 -79 -164 3 -235 l32 -28 -34 -26 c-80 -65 -79 -166
2 -236 l32 -28 -33 -26 c-34 -27 -62 -81 -62 -119 0 -38 28 -93 60 -117 35
-25 38 -44 10 -53 -25 -8 -70 -84 -70 -119 0 -42 25 -92 59 -117 17 -12 31
-27 31 -32 0 -4 -14 -20 -30 -34 -79 -66 -79 -160 0 -226 16 -14 30 -27 30
-30 0 -2 -20 -24 -45 -50 l-44 -46 -22 31 c-29 41 -100 72 -145 64 -18 -4 -47
-18 -64 -33 -79 -66 -81 -158 -5 -228 l35 -31 -45 -47 -44 -46 -23 28 c-62 77
-152 86 -220 23 -36 -34 -42 -45 -45 -93 -4 -45 -1 -60 19 -89 60 -89 187 -92
244 -5 18 27 44 34 44 11 0 -8 17 -28 38 -46 l37 -30 -33 -26 c-89 -70 -81
-191 16 -247 63 -37 155 -14 196 49 l17 25 44 -46 c25 -25 45 -49 45 -54 0 -4
-11 -13 -25 -19 -28 -13 -65 -79 -65 -117 0 -41 26 -91 59 -116 37 -27 39 -41
7 -58 -13 -7 -30 -24 -37 -37 -16 -31 -33 -30 -53 1 -24 37 -75 65 -116 65
-76 0 -150 -73 -150 -148 0 -44 32 -104 64 -122 32 -17 33 -33 2 -49 -31 -17
-66 -81 -66 -120 0 -42 24 -90 61 -121 l30 -25 -44 -46 -44 -46 -36 38 c-98
104 -257 44 -257 -97 0 -133 174 -193 257 -89 29 36 53 46 53 21 0 -8 17 -28
38 -45 l37 -30 -33 -27 c-86 -69 -81 -188 10 -244 62 -38 137 -24 192 36 l33
36 22 -31 c29 -40 70 -61 121 -61 86 0 144 59 144 145 0 87 -58 145 -146 145
-49 0 -98 -26 -124 -66 l-18 -26 -22 27 c-11 15 -33 35 -48 45 l-28 18 41 37
c54 51 69 101 46 161 -15 40 -48 77 -77 86 -12 4 76 98 91 98 4 0 14 -11 21
-25 15 -27 83 -65 118 -65 37 0 86 25 114 59 15 17 29 31 31 31 7 0 87 -82 87
-89 0 -3 -15 -18 -33 -33 -68 -54 -71 -153 -5 -217 59 -58 147 -53 209 12 l40
40 30 -36 c60 -72 156 -74 222 -5 l39 41 29 -36 c89 -109 263 -45 261 95 -2
142 -193 193 -272 73 l-18 -28 -19 23 c-29 36 -43 49 -61 59 -14 8 -11 15 25
50 66 63 71 152 12 210 -65 65 -163 62 -218 -6 -31 -39 -43 -41 -60 -9 -7 13
-24 30 -37 37 -32 16 -30 24 10 60 42 36 61 87 51 137 -8 44 -38 88 -65 97
-11 4 -20 10 -20 15 0 16 94 104 98 92 9 -29 46 -62 86 -77 60 -23 110 -9 161
47 36 38 40 40 49 23 20 -34 59 -65 96 -76 51 -15 102 2 147 51 l36 37 43 -45
c50 -52 52 -58 24 -67 -11 -4 -31 -23 -45 -43 -50 -74 -20 -178 61 -214 66
-29 115 -18 168 37 l42 43 32 -38 c57 -69 141 -76 207 -19 62 55 70 138 18
199 -32 39 -73 60 -114 60 -39 0 -103 -35 -120 -66 -7 -13 -16 -24 -20 -24 -5
0 -28 20 -53 44 l-44 45 33 25 c77 59 80 165 5 228 l-39 34 39 37 c49 46 67
100 51 150 -12 36 -43 74 -75 92 -16 9 -13 15 29 58 26 26 50 47 53 47 4 0 14
-13 23 -28 19 -33 74 -62 119 -62 45 0 100 29 119 62 19 32 37 36 46 9 3 -11
22 -31 41 -46 l36 -28 -31 -20 c-36 -22 -71 -83 -71 -122 0 -35 35 -101 64
-120 69 -46 140 -36 199 29 36 39 39 40 50 21 6 -11 26 -33 44 -49 l33 -29
-38 -33 c-74 -63 -75 -157 -2 -224 l38 -35 -37 -32 c-26 -21 -42 -46 -50 -76
-12 -40 -11 -50 7 -89 26 -60 72 -91 132 -92 81 -2 150 64 150 144 0 45 -29
100 -62 119 -15 9 -28 19 -28 23 0 3 21 27 47 52 l46 46 23 -34 c33 -48 101
-73 153 -57 122 36 150 185 50 264 l-32 25 33 28 c62 56 78 130 40 192 -32 52
-76 74 -139 69 -48 -3 -58 -8 -93 -45 l-38 -41 -46 45 -46 46 36 30 c66 54 72
147 15 213 -60 68 -180 61 -226 -13 -9 -15 -18 -28 -19 -30 -1 -2 -23 18 -49
43 l-47 47 35 32 c71 65 72 163 2 225 -59 52 -133 51 -193 -3 -26 -23 -52 -77
-52 -109 0 -34 38 -103 65 -117 14 -7 25 -17 25 -21 0 -5 -20 -29 -45 -53
l-44 -45 -22 30 c-26 37 -70 60 -117 61 -53 0 -86 -16 -118 -56 l-28 -35 -31
33 c-16 18 -38 37 -49 43 -17 9 -15 14 26 55 73 72 74 144 3 212 l-41 41 47
47 48 48 18 -30 c19 -32 85 -70 121 -70 37 0 86 25 115 59 53 64 44 147 -22
203 l-38 32 46 46 46 46 41 -41 c68 -70 140 -70 211 1 l42 43 22 -31 c29 -41
100 -72 145 -63 74 13 133 98 121 172 -7 40 -51 103 -73 103 -25 0 -15 24 21
53 70 56 72 155 4 219 l-39 37 46 47 47 46 24 -31 c67 -85 186 -80 244 11 15
25 19 45 16 84 -6 86 -58 134 -147 134 -49 0 -56 -3 -97 -44 l-44 -44 -46 45
-45 46 36 31 c60 52 72 119 34 187 -22 40 -84 79 -124 79 -32 -1 -102 -37
-119 -63 -47 -72 -38 -143 26 -202 l41 -37 -27 -18 c-54 -35 -81 -101 -65
-160 10 -35 26 -57 70 -94 23 -18 23 -19 4 -32 -96 -68 -106 -164 -25 -242
l38 -36 -46 -43 -46 -44 -25 30 c-31 37 -79 61 -121 61 -39 0 -103 -35 -120
-66 -16 -31 -23 -30 -51 5 -13 16 -33 34 -46 40 -23 12 -23 12 21 55 79 76 71
188 -17 233 l-30 16 37 31 c78 67 85 158 16 227 -21 21 -39 41 -39 44 0 3 15
19 34 36 69 60 71 144 5 210 -22 22 -39 41 -39 43 0 5 81 86 86 86 3 0 18 -15
35 -34 55 -63 138 -71 200 -19 34 29 59 78 59 115 0 35 -38 103 -65 118 -14 7
-25 16 -25 20 0 3 19 27 43 51 l43 45 40 -42 c78 -80 187 -63 240 38 30 57 5
147 -48 177 -15 9 -28 19 -28 23 0 4 21 29 47 54 43 43 48 46 57 29 52 -91
163 -105 235 -31 61 63 53 158 -18 217 l-36 29 33 26 c41 33 62 73 62 120 0
45 -34 108 -66 123 -31 14 -30 25 1 45 87 57 85 193 -2 248 -68 41 -159 21
-203 -47 l-18 -28 -19 23 c-29 36 -43 49 -61 59 -15 9 -12 14 20 44 59 54 73
117 42 183 -19 39 -87 84 -126 84 -41 0 -96 -28 -120 -60 -27 -37 -40 -38 -58
-5 -15 27 -83 65 -118 65 -37 0 -86 -25 -114 -59 -15 -17 -31 -31 -35 -31 -5
0 -20 14 -32 31 -37 50 -104 70 -161 48z m536 -246 c33 -33 43 -48 33 -52 -18
-6 -64 -52 -71 -71 -3 -10 -18 0 -51 35 -26 27 -47 52 -47 56 0 4 9 10 20 14
11 3 29 19 40 36 12 16 23 29 25 29 3 0 26 -21 51 -47z m290 -289 c41 -41 44
-48 29 -57 -9 -5 -25 -17 -35 -27 -10 -10 -22 -26 -27 -35 -9 -15 -16 -12 -56
29 l-47 46 43 44 c23 24 43 45 44 45 1 1 23 -20 49 -45z m-27 -268 c7 -13 26
-33 42 -45 l29 -21 -46 -44 -45 -44 -44 44 -45 44 43 44 c23 24 45 45 48 45 3
1 11 -10 18 -23z m-842 -911 l33 -31 -43 -45 -42 -45 -45 45 -45 45 45 47 c39
41 46 45 55 31 6 -9 25 -30 42 -47z m-1197 -260 c7 -14 16 -25 20 -25 3 0 16
-10 29 -21 l23 -21 -29 -18 c-16 -9 -37 -29 -46 -44 l-18 -27 -44 46 c-49 50
-54 61 -27 69 9 3 26 19 37 36 24 37 37 38 55 5z m621 -1206 c67 -44 135 -34
195 28 l43 44 15 -29 c8 -16 26 -37 40 -46 33 -21 33 -28 -3 -49 -35 -20 -61
-72 -61 -122 0 -47 13 -73 57 -111 l35 -31 -42 -39 c-35 -33 -43 -48 -47 -87
-7 -59 9 -99 56 -138 l36 -29 -33 -26 c-83 -65 -83 -172 -1 -237 l31 -24 -47
-48 -48 -47 -24 31 c-65 82 -172 82 -237 -1 l-26 -33 -29 36 c-39 47 -79 63
-138 56 -39 -4 -54 -12 -87 -47 l-39 -42 -31 35 c-38 44 -64 57 -111 57 -50 0
-102 -26 -122 -61 -21 -36 -28 -36 -49 -3 -9 14 -30 32 -46 40 l-29 15 44 43
c47 45 63 91 51 143 -9 37 -49 90 -75 98 -19 6 -17 10 24 49 72 70 74 149 5
218 l-40 40 35 32 c71 65 72 163 2 225 -19 17 -35 32 -35 35 0 5 81 86 86 86
3 0 18 -16 35 -35 62 -70 160 -69 225 2 l32 35 40 -40 c68 -68 149 -67 216 4
l40 42 17 -27 c9 -15 27 -34 40 -42z m-921 -240 c0 -6 16 -26 35 -43 l35 -32
-43 -46 -44 -45 -34 37 c-19 21 -41 39 -49 42 -10 3 -2 17 30 50 45 45 70 58
70 37z m10 -304 c7 -14 24 -32 37 -40 30 -20 29 -39 -2 -53 -14 -7 -30 -23
-37 -37 -14 -32 -31 -32 -48 1 -8 14 -27 32 -43 41 -16 8 -27 16 -25 18 1 2
21 24 43 49 22 25 45 45 51 45 6 1 17 -10 24 -24z m2040 0 c7 -14 16 -25 20
-25 3 0 17 -10 29 -21 l23 -22 -31 -19 c-17 -11 -31 -23 -31 -26 0 -4 -7 -15
-15 -26 -13 -18 -16 -16 -60 28 l-45 47 42 44 c24 24 46 44 49 44 3 1 12 -10
19 -24z m289 -289 c7 -13 26 -33 42 -45 l29 -21 -46 -44 -45 -44 -44 44 -45
44 43 44 c23 24 45 45 48 45 3 1 11 -10 18 -23z m-2018 -403 c-24 -24 -48 -43
-51 -43 -4 0 -12 11 -18 25 -6 13 -25 31 -42 40 l-31 16 48 47 48 47 45 -45
46 -44 -45 -43z m-301 -204 c0 -3 11 -12 25 -19 31 -17 32 -33 2 -49 -13 -7
-31 -26 -41 -42 l-17 -29 -47 47 -47 48 45 46 c45 45 45 45 62 25 10 -12 18
-24 18 -27z m301 -86 c-25 -24 -45 -43 -47 -43 -2 0 -84 82 -84 84 0 1 19 22
42 47 l42 44 46 -45 45 -45 -44 -42z m295 -210 c33 -33 43 -48 33 -52 -18 -6
-64 -52 -71 -71 -3 -10 -18 0 -51 34 l-46 48 42 44 c23 24 43 43 44 43 1 1 24
-20 49 -46z"/>
<path d="M7695 2055 c-102 -36 -133 -164 -57 -240 70 -70 179 -57 233 27 25
41 22 122 -7 160 -40 55 -106 75 -169 53z"/>
<path d="M93 5259 c-110 -55 -111 -207 -3 -261 126 -64 255 69 194 198 -33 69
-122 98 -191 63z"/>
<path d="M7115 5268 c-59 -21 -105 -81 -105 -138 0 -42 33 -103 67 -126 38
-25 128 -25 165 0 15 10 37 38 49 62 37 77 5 159 -75 195 -46 21 -58 22 -101
7z"/>
<path d="M6810 4973 c-8 -3 -26 -15 -38 -27 -74 -66 -69 -168 10 -230 l33 -26
-33 -26 c-83 -66 -83 -175 0 -237 18 -13 45 -27 59 -30 42 -10 101 12 139 54
l36 38 27 -34 c15 -18 46 -41 72 -50 43 -17 47 -17 90 0 65 24 99 73 99 139 0
32 -7 61 -18 78 -58 88 -187 91 -247 7 l-23 -32 -25 30 c-14 17 -37 36 -50 43
l-23 12 41 39 c55 54 70 103 47 164 -24 60 -74 95 -136 94 -25 0 -52 -3 -60
-6z"/>
<path d="M7372 4960 c-42 -26 -76 -99 -68 -144 27 -142 215 -173 278 -46 66
130 -85 266 -210 190z"/>
<path d="M7690 4683 c-30 -11 -79 -67 -86 -97 -24 -104 40 -189 143 -189 48 0
104 36 128 83 47 91 -27 211 -129 209 -23 0 -48 -3 -56 -6z"/>
<path d="M90 4092 c-48 -24 -80 -75 -80 -129 0 -89 58 -147 146 -147 92 0 154
72 141 166 -7 52 -29 84 -77 108 -47 24 -83 25 -130 2z"/>
<path d="M669 4088 c-43 -24 -79 -83 -79 -127 0 -53 36 -110 83 -132 50 -22
77 -24 121 -5 87 36 118 148 62 221 -50 65 -122 81 -187 43z"/>
<path d="M1265 4096 c-61 -27 -102 -100 -91 -161 9 -48 59 -102 107 -116 53
-16 108 1 148 46 17 19 33 35 36 35 3 0 22 -17 44 -39 97 -97 251 -35 251 101
0 71 -73 147 -141 148 -41 0 -96 -27 -121 -60 -25 -35 -44 -38 -53 -10 -8 26
-84 70 -121 70 -16 -1 -42 -7 -59 -14z"/>
<path d="M9430 4092 c-48 -24 -80 -75 -80 -129 0 -89 58 -147 145 -147 87 0
145 58 145 146 0 56 -29 102 -79 128 -48 24 -84 25 -131 2z"/>
<path d="M380 3797 c-141 -74 -79 -290 79 -274 56 6 90 32 119 89 20 40 22 52
13 85 -15 54 -38 82 -85 104 -54 24 -74 24 -126 -4z"/>
<path d="M985 3808 c-59 -21 -105 -83 -105 -143 0 -35 34 -99 62 -117 87 -57
200 -15 230 84 22 73 -23 151 -101 177 -40 13 -46 13 -86 -1z"/>
<path d="M1840 3797 c-96 -50 -108 -180 -24 -246 60 -47 154 -36 201 24 28 34
53 46 53 24 0 -6 16 -26 36 -45 l37 -33 -32 -27 c-119 -99 -50 -274 102 -261
58 5 111 50 129 109 15 50 -11 119 -55 150 -18 12 -34 23 -35 24 -5 4 90 94
99 94 4 0 10 -9 14 -20 19 -60 144 -87 201 -44 50 37 69 71 68 125 0 39 -7 57
-30 86 -62 77 -163 77 -228 1 l-33 -38 -26 34 c-16 20 -45 41 -72 52 -62 23
-111 9 -158 -47 l-35 -40 -22 32 c-24 32 -89 68 -126 69 -11 0 -40 -10 -64
-23z"/>
<path d="M76 3501 c-50 -33 -69 -74 -64 -138 4 -49 9 -60 47 -95 l41 -40 -41
-37 c-38 -34 -42 -42 -47 -94 -5 -63 9 -94 60 -135 l28 -24 -41 -37 c-38 -33
-42 -42 -47 -93 -5 -64 17 -112 65 -143 l26 -17 -32 -25 c-41 -32 -61 -72 -61
-123 0 -106 100 -174 198 -135 104 42 124 185 36 252 l-35 26 42 43 c69 70 66
162 -8 223 l-35 29 32 28 c82 73 81 172 -2 238 l-33 26 33 26 c64 51 80 125
40 195 -12 21 -36 45 -54 54 -44 21 -113 19 -148 -4z"/>
<path d="M1536 3502 c-45 -31 -66 -71 -66 -125 0 -44 24 -107 40 -107 4 0 16
-9 29 -21 l22 -21 -42 -37 c-38 -34 -42 -42 -47 -94 -5 -63 9 -94 59 -135 l28
-23 -47 -45 -47 -45 -21 26 c-67 85 -169 87 -237 5 -37 -44 -43 -88 -19 -142
48 -109 169 -126 246 -36 20 23 37 40 39 37 2 -2 11 -17 21 -32 24 -39 97 -71
143 -62 47 9 111 68 119 111 11 58 -4 105 -47 146 l-39 37 47 47 c43 44 47 46
60 28 7 -10 13 -20 13 -24 0 -8 61 -44 90 -52 87 -26 195 85 170 173 -37 129
-182 161 -263 58 l-24 -31 -48 47 -47 48 31 24 c79 62 82 162 7 232 -36 34
-128 41 -170 13z"/>
<path d="M2409 3207 c-85 -57 -90 -179 -10 -238 37 -28 39 -42 6 -57 -30 -14
-65 -80 -65 -122 0 -42 23 -84 62 -113 68 -51 132 -45 192 18 l41 41 46 -46
46 -46 -38 -32 c-74 -62 -75 -158 -4 -221 19 -17 35 -32 35 -34 0 -2 -20 -24
-44 -49 l-44 -46 -30 36 c-53 67 -139 78 -202 25 -61 -51 -75 -114 -41 -182
48 -93 169 -106 240 -25 36 40 44 42 60 10 7 -13 24 -30 37 -37 32 -17 30 -29
-9 -61 -44 -35 -64 -100 -47 -152 37 -114 171 -142 253 -53 35 38 39 40 49 23
5 -10 19 -25 30 -35 51 -41 51 -42 19 -65 -41 -29 -64 -72 -64 -121 0 -142
180 -200 265 -85 26 36 35 37 49 6 6 -13 29 -33 51 -46 68 -38 134 -25 190 39
l28 31 46 -47 46 -46 -31 -24 c-40 -31 -61 -72 -61 -118 0 -44 12 -69 57 -116
l34 -36 -36 -27 c-19 -15 -35 -34 -35 -42 0 -24 -19 -16 -58 25 -65 68 -162
65 -223 -8 l-30 -36 -27 32 c-51 59 -123 79 -180 49 -100 -52 -114 -179 -28
-250 l34 -28 -38 -37 c-45 -43 -63 -96 -49 -146 32 -117 165 -151 249 -64 l38
40 48 -46 c44 -44 46 -47 28 -60 -11 -8 -22 -15 -26 -15 -17 -1 -48 -71 -48
-109 0 -51 20 -91 60 -123 l31 -24 -47 -48 -48 -47 -24 31 c-89 113 -265 57
-265 -85 0 -81 65 -145 148 -145 46 0 86 21 119 62 l26 33 26 -33 c66 -83 172
-83 238 0 l26 33 29 -36 c39 -47 79 -63 138 -56 39 4 54 12 84 44 48 52 57
100 29 158 -31 63 -76 89 -148 83 -51 -5 -59 -9 -94 -47 l-37 -42 -18 22 c-21
25 -31 35 -58 54 -20 14 -19 15 13 41 42 34 62 73 62 125 0 38 -31 108 -48
109 -4 0 -15 7 -26 15 -18 13 -16 16 28 60 52 50 62 54 71 25 11 -36 64 -64
121 -65 65 0 100 23 133 89 22 43 23 51 11 89 -7 25 -28 57 -50 77 l-37 35 47
46 46 46 32 -38 c64 -76 162 -76 223 0 l31 39 44 -44 c24 -25 44 -47 44 -50 0
-3 -14 -17 -31 -32 -34 -28 -59 -77 -59 -114 0 -35 38 -103 65 -118 14 -7 25
-17 25 -21 0 -5 -20 -28 -44 -53 l-44 -44 -29 35 c-38 46 -102 68 -152 52 -97
-31 -137 -127 -88 -213 30 -54 79 -78 141 -73 43 4 55 10 88 46 21 22 42 41
47 41 4 0 13 -11 20 -24 7 -13 27 -34 43 -46 l30 -22 -31 -19 c-34 -21 -71
-85 -71 -124 0 -40 37 -104 73 -125 63 -39 154 -20 197 40 26 37 31 37 53 1
35 -60 136 -80 198 -38 89 59 89 185 0 244 -44 30 -111 31 -157 2 -19 -11 -34
-24 -34 -27 0 -4 -7 -15 -15 -26 -13 -18 -16 -16 -60 28 l-46 48 40 38 c68 66
64 167 -8 221 -17 12 -31 26 -31 30 0 9 80 89 89 89 4 0 18 -14 30 -31 51 -69
153 -76 215 -14 81 81 47 213 -65 246 -53 16 -112 -3 -148 -48 -14 -18 -29
-33 -32 -33 -6 0 -89 79 -89 85 0 1 18 20 39 42 50 50 60 96 36 160 -11 29
-28 51 -46 62 -37 20 -36 32 2 60 41 30 63 84 55 134 -8 46 -38 93 -66 102
-29 9 -25 19 26 72 42 43 47 45 57 28 32 -58 102 -90 162 -74 132 37 154 212
35 274 -64 33 -159 8 -190 -50 -17 -32 -24 -32 -50 5 -28 40 -69 60 -120 60
-51 0 -92 -21 -121 -61 l-22 -32 -22 27 c-70 88 -194 88 -251 1 l-17 -27 -32
34 c-17 18 -40 38 -50 44 -17 9 -15 13 23 49 56 51 70 101 47 162 -41 106
-175 128 -249 42 l-34 -40 -23 29 c-36 45 -73 64 -123 64 -52 0 -92 -21 -122
-62 l-20 -29 -48 45 -48 45 41 39 c86 83 58 213 -55 250 -52 17 -117 -3 -152
-47 -15 -18 -30 -33 -33 -33 -6 0 -89 79 -89 85 0 1 18 20 39 42 50 49 60 96
36 158 -10 28 -28 51 -46 62 -16 10 -29 21 -29 25 0 8 91 101 94 96 1 -2 10
-16 20 -31 24 -39 97 -71 142 -63 39 8 89 47 109 87 46 89 -27 209 -127 209
-48 0 -87 -20 -122 -61 l-27 -32 -33 37 c-19 20 -39 36 -45 36 -21 0 -11 26
20 49 82 61 71 199 -21 246 -64 33 -159 8 -190 -50 -17 -31 -25 -31 -46 0 -42
65 -141 85 -205 42z m302 -285 c-36 -28 -49 -41 -60 -58 -10 -18 -13 -17 -38
12 -16 18 -38 37 -51 43 -22 12 -21 12 25 59 l48 48 46 -45 c42 -41 45 -47 30
-59z m264 -819 c35 -33 45 -48 35 -51 -19 -7 -65 -53 -71 -71 -4 -10 -20 0
-52 33 l-47 47 42 44 c24 24 43 44 44 44 0 1 22 -20 49 -46z m289 -287 l44
-45 -44 -45 -45 -44 -44 44 -45 44 43 44 c23 24 43 45 44 45 1 1 22 -19 47
-43z m290 0 l44 -45 -43 -44 -43 -45 -28 32 c-16 18 -38 37 -48 43 -18 10 -16
14 25 55 24 25 45 46 46 46 1 1 22 -18 47 -42z m359 -334 c53 -15 104 2 147
48 l35 37 48 -48 47 -48 -30 -16 c-33 -17 -70 -80 -70 -119 0 -43 19 -80 61
-117 l41 -37 -30 -17 c-17 -10 -36 -29 -43 -42 -16 -29 -32 -29 -48 1 -17 31
-81 66 -120 66 -43 0 -109 -35 -123 -65 -6 -14 -15 -25 -19 -25 -5 0 -29 20
-53 45 l-45 44 31 22 c40 29 72 100 63 142 -10 46 -40 92 -70 105 l-26 12 48
48 48 48 35 -37 c19 -20 52 -41 73 -47z m-628 -566 c30 -20 32 -33 5 -41 -11
-4 -31 -22 -44 -42 l-24 -35 -22 30 c-12 16 -33 36 -46 43 -13 7 -24 16 -24
20 0 4 21 28 47 53 l47 46 18 -29 c11 -16 30 -37 43 -45z m284 7 c34 -32 34
-33 15 -48 -10 -8 -22 -15 -26 -15 -4 0 -15 -14 -23 -31 l-16 -31 -37 40 c-20
21 -44 41 -52 44 -10 3 0 19 35 55 43 44 51 49 60 35 6 -9 25 -31 44 -49z"/>
<path d="M4475 3221 c-34 -14 -75 -62 -85 -102 -14 -52 8 -115 54 -153 l34
-28 -46 -45 -47 -44 -25 30 c-53 62 -124 77 -191 39 -40 -22 -79 -84 -79 -125
0 -37 29 -91 62 -116 68 -50 131 -45 193 17 l41 41 46 -46 45 -45 -37 -31
c-25 -21 -41 -46 -49 -76 -12 -40 -11 -50 7 -89 11 -25 34 -55 51 -67 l32 -23
-39 -33 c-70 -61 -77 -158 -15 -217 66 -63 150 -61 213 4 l39 40 38 -40 c66
-69 163 -67 221 4 l30 36 46 -46 47 -45 -42 -38 c-34 -32 -42 -47 -46 -86 -7
-59 9 -99 56 -138 l36 -29 -33 -26 c-100 -79 -77 -217 44 -259 52 -17 103 -2
149 45 l37 38 37 -38 c69 -72 164 -70 225 4 l29 36 36 -39 c65 -70 154 -72
217 -5 58 61 55 143 -8 206 l-39 39 47 46 c42 43 47 45 57 28 47 -85 167 -100
234 -29 60 64 54 157 -14 213 l-37 31 37 33 c60 56 72 111 37 182 -11 23 -31
48 -45 55 -33 18 -32 25 9 61 81 71 68 192 -25 240 -68 34 -131 20 -182 -41
-31 -36 -40 -37 -56 -6 -7 13 -24 30 -37 37 -13 7 -24 16 -24 21 0 5 18 26 39
46 51 48 61 96 35 161 -22 53 -77 91 -133 91 -41 0 -105 -34 -122 -66 -16 -30
-32 -30 -48 0 -18 33 -82 66 -127 66 -43 0 -85 -23 -120 -67 l-23 -28 -27 33
c-66 83 -172 83 -237 1 l-24 -31 -46 46 -47 46 31 28 c61 54 77 128 39 190
-32 52 -76 74 -139 69 -49 -3 -58 -8 -94 -47 l-40 -42 -24 31 c-14 17 -38 38
-53 46 -31 16 -93 19 -125 6z m225 -217 c8 -14 27 -35 42 -45 l27 -20 -45 -43
-45 -44 -44 44 -45 44 43 44 c23 24 45 45 48 45 3 1 12 -11 19 -25z m72 -348
c42 -17 52 -18 90 -7 26 8 56 28 79 53 l37 41 16 -30 c8 -17 27 -38 42 -48
l27 -17 -32 -25 c-41 -32 -61 -72 -61 -124 0 -47 27 -98 65 -123 32 -21 31
-29 -1 -46 -14 -8 -33 -27 -42 -42 l-16 -28 -36 39 c-22 24 -52 44 -78 52 -38
11 -48 10 -90 -7 -27 -12 -55 -32 -68 -51 l-21 -32 -29 33 c-16 18 -38 37 -49
43 -19 11 -18 13 17 46 41 38 58 72 58 119 0 43 -29 98 -62 117 -15 9 -28 19
-28 23 0 3 21 27 46 52 l47 45 21 -32 c13 -19 41 -39 68 -51z m539 27 c26 -28
86 -45 130 -36 20 4 49 23 73 48 l40 41 43 -43 c24 -24 43 -47 43 -52 0 -4
-11 -13 -24 -20 -31 -17 -66 -81 -66 -121 0 -40 35 -104 66 -121 31 -16 30
-25 -6 -56 -80 -66 -79 -165 1 -233 l30 -25 -45 -47 -45 -47 -22 31 c-12 17
-42 39 -67 50 -39 18 -49 19 -89 7 -30 -8 -55 -24 -76 -50 l-32 -37 -35 37
c-19 21 -42 40 -50 43 -11 4 -4 15 27 42 77 67 80 151 7 222 l-43 41 31 23
c16 12 39 42 49 66 28 61 18 106 -35 158 l-41 41 45 46 c40 42 46 45 57 30 7
-9 22 -26 34 -38z m580 -285 l44 -42 -45 -46 -45 -45 -42 44 c-24 25 -43 46
-43 47 0 4 75 81 81 83 3 0 25 -18 50 -41z m3 -295 l46 -46 -28 -17 c-15 -10
-36 -29 -45 -44 l-18 -27 -45 47 -45 46 35 33 c20 18 36 38 36 44 0 21 18 11
64 -36z m-614 -257 c0 -8 16 -28 36 -44 l36 -30 -45 -45 -45 -45 -29 32 c-16
17 -38 36 -48 42 -18 10 -16 14 25 56 47 47 70 58 70 34z m295 -5 c3 -11 22
-31 41 -46 l36 -27 -29 -18 c-16 -9 -37 -30 -47 -45 l-18 -27 -32 34 c-17 18
-40 38 -50 43 -16 9 -14 14 26 56 48 52 64 58 73 30z"/>
<path d="M6225 3220 c-11 -4 -33 -22 -49 -39 -23 -24 -30 -42 -34 -86 -5 -61
9 -92 60 -133 l28 -24 -41 -37 c-39 -35 -43 -42 -46 -97 -5 -76 18 -117 83
-146 64 -28 104 -18 164 38 l49 45 12 -23 c6 -13 25 -35 42 -49 l30 -25 -32
-23 c-103 -73 -71 -234 52 -265 103 -25 203 79 175 182 -6 20 -27 53 -48 73
l-37 35 37 35 c25 22 42 49 50 77 10 39 9 49 -12 90 -54 109 -178 124 -251 31
l-24 -31 -48 47 -47 48 31 24 c85 67 80 187 -11 243 -34 21 -97 25 -133 10z"/>
<path d="M662 2920 c-90 -55 -96 -172 -12 -243 37 -31 37 -40 4 -57 -32 -18
-64 -78 -64 -122 0 -55 39 -110 91 -132 64 -26 113 -16 160 34 64 67 61 138
-7 207 l-43 42 31 22 c41 29 72 100 64 145 -19 98 -140 155 -224 104z"/>
<path d="M1840 2632 c-122 -60 -100 -243 33 -276 51 -12 98 4 143 51 l43 44
16 -31 c35 -67 140 -86 208 -38 40 28 70 99 62 141 -15 68 -82 127 -145 127
-42 0 -108 -35 -122 -65 -15 -33 -29 -31 -56 5 -25 33 -80 60 -121 60 -14 -1
-42 -9 -61 -18z"/>
<path d="M3588 2630 c-96 -51 -104 -189 -15 -252 44 -31 121 -31 166 1 43 31
75 101 66 144 -15 69 -85 128 -152 127 -15 -1 -44 -10 -65 -20z"/>
<path d="M9430 2632 c-97 -48 -109 -189 -20 -252 35 -25 38 -36 10 -45 -11 -4
-31 -23 -45 -43 -50 -73 -24 -175 55 -214 134 -68 269 90 185 214 -14 20 -34
39 -45 43 -28 9 -25 20 10 45 40 28 60 69 60 122 0 56 -29 102 -79 128 -48 24
-84 25 -131 2z"/>
<path d="M3900 2349 c-55 -22 -100 -85 -100 -139 0 -42 33 -103 67 -125 40
-27 123 -26 159 1 50 37 69 71 68 124 -1 101 -104 174 -194 139z"/>
<path d="M572 2059 c-246 -32 -453 -205 -535 -448 -22 -65 -22 -76 -22 -561 0
-492 0 -495 23 -565 73 -215 246 -380 459 -435 78 -20 100 -21 565 -17 432 3
488 5 528 21 224 87 353 219 426 436 l29 85 0 470 -1 470 -28 80 c-55 155
-110 237 -217 322 -111 88 -210 127 -361 143 -110 11 -775 11 -866 -1z m841
-290 c92 -14 145 -40 213 -102 68 -62 108 -138 123 -234 15 -95 15 -704 0
-775 -36 -173 -173 -309 -340 -337 -97 -16 -684 -14 -781 3 -156 28 -271 129
-315 278 -21 69 -31 714 -13 816 30 175 156 312 320 348 73 16 693 18 793 3z"/>
<path d="M745 1461 c-61 -28 -102 -67 -129 -126 -26 -53 -26 -57 -26 -293 0
-197 3 -246 16 -278 26 -64 61 -101 118 -128 54 -26 57 -26 298 -26 215 0 248
3 284 19 58 26 109 74 133 126 20 42 21 61 21 292 0 239 -1 250 -24 298 -13
28 -38 63 -56 78 -64 54 -82 57 -349 57 -216 0 -251 -3 -286 -19z"/>
<path d="M2412 1459 c-39 -25 -72 -85 -72 -131 0 -39 29 -90 65 -114 31 -20
32 -37 1 -53 -31 -17 -66 -81 -66 -120 0 -41 21 -82 60 -114 16 -14 30 -29 30
-32 0 -3 -14 -18 -30 -32 -63 -53 -76 -119 -37 -188 45 -80 151 -96 222 -34
71 63 70 158 -4 221 l-39 33 39 33 c76 64 76 160 0 224 l-39 32 43 42 c55 53
66 102 37 168 -35 78 -139 110 -210 65z"/>
<path d="M6215 1461 c-52 -32 -68 -58 -73 -116 -6 -73 26 -125 93 -150 61 -24
108 -10 160 47 36 38 40 40 49 23 20 -34 59 -65 97 -77 77 -23 165 38 183 127
5 21 0 44 -16 75 -55 108 -178 122 -252 28 l-26 -33 -26 33 c-49 62 -129 80
-189 43z"/>
<path d="M4760 1172 c-97 -48 -109 -189 -22 -251 98 -69 232 3 232 125 0 104
-115 174 -210 126z"/>
<path d="M5336 1166 c-45 -27 -75 -76 -76 -125 0 -41 34 -105 66 -122 13 -7
24 -15 24 -19 0 -3 -20 -27 -45 -53 l-44 -46 -21 30 c-24 33 -87 69 -123 69
-40 0 -108 -43 -128 -80 -21 -39 -25 -100 -8 -133 6 -12 26 -36 45 -52 l35
-31 -44 -46 -44 -45 -36 38 c-58 61 -134 70 -198 25 -78 -54 -79 -175 -3 -235
60 -47 152 -36 202 25 l30 36 47 -47 47 -48 -31 -24 c-85 -67 -80 -186 11
-244 26 -15 45 -19 86 -16 147 11 186 199 57 273 -17 9 -14 14 29 57 25 26 50
47 54 47 4 0 14 -13 23 -28 18 -31 73 -62 112 -62 91 0 166 86 152 173 -5 29
-19 51 -50 81 l-43 42 39 32 c72 61 74 147 4 217 l-41 41 42 41 c64 62 69 139
11 201 -52 56 -118 66 -181 28z m-56 -487 c0 -6 16 -26 35 -43 l35 -32 -43
-46 -44 -45 -34 37 c-19 21 -40 39 -48 42 -10 3 -1 18 30 50 43 45 69 59 69
37z"/>
<path d="M6220 882 c-143 -70 -79 -298 78 -278 147 19 182 207 52 274 -52 26
-83 27 -130 4z"/>
<path d="M2735 598 c-74 -26 -118 -106 -96 -177 33 -111 165 -146 246 -66 78
79 44 207 -64 244 -40 13 -46 13 -86 -1z"/>
<path d="M8575 598 c-92 -32 -130 -129 -82 -212 53 -93 185 -101 242 -16 24
36 37 38 55 5 18 -34 52 -54 103 -61 139 -19 221 153 119 248 -66 62 -156 56
-217 -14 l-33 -39 -22 32 c-22 31 -90 69 -120 68 -8 0 -28 -5 -45 -11z"/>
<path d="M5913 289 c-32 -20 -73 -90 -73 -124 0 -35 41 -104 74 -125 94 -58
226 15 226 125 0 110 -134 184 -227 124z"/>
<path d="M9126 291 c-126 -83 -70 -271 82 -271 72 0 142 71 142 145 0 43 -30
96 -69 122 -43 29 -114 31 -155 4z"/>
</g>
</svg>
